/* XPM */
static char *_c8237de0a224ec3a6bef90c130929f73jSK4Es6AFZOSoBh_5[] = {
/* columns rows colors chars-per-pixel */
"32 32 181 2 ",
"   c #2A2928",
".  c #2F323E",
"X  c #3E3D3D",
"o  c #780E22",
"O  c #6B1929",
"+  c #532B32",
"@  c #602C39",
"#  c #7A223A",
"$  c #67353E",
"%  c #33384E",
"&  c #2A3555",
"*  c #353A50",
"=  c #343C5F",
"-  c #323D63",
";  c #7E2B46",
":  c #643C56",
">  c #3C4966",
",  c #3C5076",
"<  c #454757",
"1  c #5E5B5A",
"2  c #72424B",
"3  c #6E4D53",
"4  c #65595C",
"5  c #72545A",
"6  c #4B526C",
"7  c #555161",
"8  c #495072",
"9  c #6F4460",
"0  c #6C5C67",
"q  c #615C7B",
"w  c #756569",
"e  c #76686B",
"r  c #6B6C71",
"t  c #787677",
"y  c #7C7978",
"u  c #8F122B",
"i  c #9E142F",
"p  c #991F36",
"a  c #A61732",
"s  c #A91431",
"d  c #AE1834",
"f  c #B41737",
"g  c #85253B",
"h  c #88283E",
"j  c #982138",
"k  c #CA1236",
"l  c #D81A3F",
"z  c #8B2641",
"x  c #962F42",
"c  c #B32141",
"v  c #AF344C",
"b  c #D61D42",
"n  c #DB1C41",
"m  c #E41C43",
"M  c #EC1A43",
"N  c #F41C46",
"B  c #F31E48",
"V  c #FE1F4B",
"C  c #DF294C",
"Z  c #DC3354",
"A  c #FF214C",
"S  c #EE2950",
"D  c #FE2F58",
"F  c #E13355",
"G  c #FE325A",
"H  c #FD3B61",
"J  c #B2495E",
"K  c #AF5C6D",
"L  c #B15164",
"P  c #946C74",
"I  c #8D787C",
"U  c #AC6E7B",
"Y  c #B96173",
"T  c #DF4B68",
"R  c #D65E76",
"E  c #E14967",
"W  c #FA4468",
"Q  c #EE5473",
"!  c #F75777",
"~  c #E2667F",
"^  c #445C80",
"/  c #4D678B",
"(  c #546587",
")  c #50719C",
"_  c #5B7A9D",
"`  c #696E8B",
"'  c #727488",
"]  c #677399",
"[  c #777798",
"{  c #597CA6",
"}  c #737BA8",
"|  c #9B7E84",
" . c #C27887",
".. c #E07187",
"X. c #6084AA",
"o. c #7690AE",
"O. c #628EB6",
"+. c #6690BF",
"@. c #6897C7",
"#. c #6C9BC7",
"$. c #6FA3CF",
"%. c #72A0CB",
"&. c #74A8D6",
"*. c #7BB1E2",
"=. c #878382",
"-. c #978387",
";. c #908688",
":. c #958C8D",
">. c #8E8A91",
",. c #9B8D90",
"<. c #9B9394",
"1. c #9A9799",
"2. c #A2878D",
"3. c #8884A7",
"4. c #908BAC",
"5. c #999BA4",
"6. c #8288B1",
"7. c #859AB8",
"8. c #B49AA4",
"9. c #A5A5A6",
"0. c #AFADAD",
"q. c #B7A3A7",
"w. c #AEAFB2",
"e. c #B8A7B8",
"r. c #ABB2B9",
"t. c #B1B0B1",
"y. c #B8B3B4",
"u. c #BEBCBC",
"i. c #DE8397",
"p. c #F5879D",
"a. c #F1889D",
"s. c #C2AEB1",
"d. c #C5BABB",
"f. c #D7B5B5",
"g. c #E5BCBC",
"h. c #8CB5DC",
"j. c #99B9D9",
"k. c #B7ADC2",
"l. c #85BAEC",
"z. c #85BDF1",
"x. c #D6BEC5",
"c. c #BFC0C0",
"v. c #9FC6E9",
"b. c #89C3F6",
"n. c #8CC5F8",
"m. c #8FC9FD",
"M. c #93CCFF",
"N. c #9DCDF8",
"B. c #B4CEE6",
"V. c #BDD3E9",
"C. c #B5D9FA",
"Z. c #BDE0FE",
"A. c #C5C3C3",
"S. c #CFC4C3",
"D. c #CBCACA",
"F. c #D0CECE",
"G. c #DBC9C9",
"H. c #D5D4D4",
"J. c #D8D6D6",
"K. c gainsboro",
"L. c #EED4D4",
"P. c #E3DEDE",
"I. c #C0D3E3",
"U. c #D8DBE4",
"Y. c #CADEF6",
"T. c #D8E0E4",
"R. c #C6E3FC",
"E. c #DAE7F3",
"W. c #E4E3E3",
"Q. c #EAE4E3",
"!. c #E7E8E8",
"~. c #ECECEC",
"^. c #F4E4E3",
"/. c #F0EFEE",
"(. c #F9EEEC",
"). c #FBF1EF",
"_. c #F4EFF0",
"`. c #F3F3F3",
"'. c #FFF4F2",
"]. c #F0F8FE",
"[. c white",
/* pixels */
"[.[.[.[.[.[.[.[.[.[.[.[.W.!.[.[.[.[.[.[.[.[.[.[.[.[.[.[.[.[.[.[.",
"[.[.[.[.[.[.[.[.[.[.[.P.2.-.u.[.!.H.!.[.[.[.[.[.[.[.[.[.[.[.[.[.",
"[.[.[.[.[.[.[.[.[.[.[.<.R Q Y :.w P -.,.H.[.[.[.[.[.[.[.[.[.[.[.",
"[.[.[.[.[.[.[.[.[.[.[.| C ! p.i.~ ! Q Z h I ,.y.J.!.[.[.[.[.[.[.",
"[.[.[.[.[.[.[.[.[.[.K.5 ..p.! G A V V V N F T v + c.[.[.[.[.[.[.",
"[.[.[.[.[.[.[.[.[.K.0 L W S a a B V V n n V V i w `.[.[.[.[.[.[.",
"[.[.[.[.[.[.[.[.K.4 J H V V m m V V B d d B V x J.[.[.[.[.[.[.[.",
"[.[.[.[.[.[.[.[.;.K D V V V V V V V V V A V V j t.[.[.[.[.[.[.[.",
"[.[.[.[.[.[.K.;. .W A V V V V V V V V V V V V l 3 W.[.[.[.[.[.[.",
"[.[.[.[.[.W.e U E M V V V V V V V V V V V V V A a 4 `.[.[.[.[.[.",
"[.[.[.[.[.-.Y a.Z k f z c M V V M N V V V V V V B O 0.[.[.[.[.[.",
"[.[.[.[.[.0.$ p u : 6 O._ : o s # # h b V V m n V l 5 /.[.[.[.[.",
"[.[.[.[.[.[.J.' ( { & ^ @.#./ ] %.&.#.q ; z 9 q g k g K.[.[.[.[.",
"[.[.[.[.[.[.[.Z.l./ - & - ) *.m.M.M.M.b.&.$.&.b._ @ 2 W.[.[.[.[.",
"[.[.[.[.[.[.].N.{ = & 7 >.5.j.*.z.n.n.C.Y.7., +.N.T.W.[.[.[.[.[.",
"[.[.[.[.[.[.].h.> % 0 s.'.'.`.U.j.h.V.`.'.q.0 > j.[.[.[.[.[.[.[.",
"[.[.[.[.[.[.[.H.. 8 e.L.d.y =.d._.P.:.y <.G.8.* r.[.[.[.[.[.[.[.",
"[.[.[.[.[.[.[.[.r = 6.k.d.  X 1.'.(.t   1 e.[ % I.[.[.[.[.[.[.[.",
"[.[.[.[.[.[.[.[.w.* ] 6.e.G.J.Q.).'.Q.J.d.4.( X.R.[.[.[.[.[.[.[.",
"[.[.[.[.[.[.[.[.[.t > } 6.e.L.^.^.^.^.x.3.` o.l.R.[.[.[.[.[.[.[.",
"[.[.[.[.[.[.[.[.[.K.>.' 6 ' 8.f.g.f.q.[ < t.B.*.C.[.[.[.[.[.[.[.",
"[.[.[.[.[.[.[.[.[.[.[.~.9.1.u.A.G.S.A.5.9.[.E.v.C.[.[.[.[.[.[.[.",
"[.[.[.[.[.[.[.[.[.[.[.'.D.K.F.u.D.A.D.J.H.'.[.[.[.[.[.[.[.[.[.[.",
"[.[.[.[.[.[.[.[.[.[.[.W.F.W.!.!./.~.W.!.F.W.[.[.[.[.[.[.[.[.[.[.",
"[.[.[.[.[.[.[.[.[.[.'.F.P.~.`.`.!.`.`.`.W.H.'.[.[.[.[.[.[.[.[.[.",
"[.[.[.[.[.[.[.[.[.[.W.H./.`.`.`.`.`.`.`.`.D.W.[.[.[.[.[.[.[.[.[.",
"[.[.[.[.[.[.[.[.[.'.H.!.`.`.`.`.W.`.`.`.`.W.H.[.[.[.[.[.[.[.[.[.",
"[.[.[.[.[.[.[.[.[.~.J.`.`.`.`.`.`.`.`.`.`.~.D.`.[.[.[.[.[.[.[.[.",
"[.[.[.[.[.[.[.[.[.~.J.`.`.`.`.`.!.`.`.`.`.`.J.`.[.[.[.[.[.[.[.[.",
"[.[.[.[.[.[.[.[.[.`.D.J.J.J.J.J.J.J.J.J.J.J.D.`.[.[.[.[.[.[.[.[.",
"[.[.[.[.[.[.[.[.[.[.`./.~.~././.`.`.`.~.~.~.`.[.[.[.[.[.[.[.[.[.",
"[.[.[.[.[.[.[.[.[.[.[.[.[.[.[.[.[.[.[.[.[.[.[.[.[.[.[.[.[.[.[.[."
};
