/* XPM */
static char *_c8237de0a224ec3a6bef90c130929f73jSK4Es6AFZOSoBh_16[] = {
/* columns rows colors chars-per-pixel */
"32 32 178 2 ",
"   c #292828",
".  c #312F30",
"X  c #3D3C3C",
"o  c #6C0C1E",
"O  c #4B1123",
"+  c #691728",
"@  c #771227",
"#  c #6F1B31",
"$  c #412837",
"%  c #582B38",
"&  c #5E363E",
"*  c #632332",
"=  c #1E2743",
"-  c #2E314D",
";  c #343A4E",
":  c #2C395B",
">  c #343B5D",
",  c #483E55",
"<  c #37415B",
"1  c #3E4E6C",
"2  c #38526E",
"3  c #384B71",
"4  c #454659",
"5  c #5A5756",
"6  c #664E53",
"7  c #6F4D53",
"8  c #705B5F",
"9  c #474D6D",
"0  c #514E60",
"q  c #4D526D",
"w  c #515E6D",
"e  c #455876",
"r  c #555C79",
"t  c #6C5A69",
"y  c #745E62",
"u  c #54667D",
"i  c #6B6465",
"p  c #786C6F",
"a  c #7A6E70",
"s  c #98122B",
"d  c #901D36",
"f  c #A5132F",
"g  c #A41632",
"h  c #A81532",
"j  c #AA1834",
"k  c #B81232",
"l  c #8B223C",
"z  c #9A263B",
"x  c #D7173C",
"c  c #DB193F",
"v  c #823140",
"b  c #AE3950",
"n  c #DD1C42",
"m  c #E11C42",
"M  c #EB1A43",
"N  c #F31C46",
"B  c #F31E48",
"V  c #FE1F4B",
"C  c #DB284A",
"Z  c #D73454",
"A  c #FF204C",
"S  c #FC2A53",
"D  c #ED3B5F",
"F  c #FE345C",
"G  c #FB3F65",
"H  c #A7485B",
"J  c #A85868",
"K  c #8D6B72",
"L  c #A56471",
"P  c #B96374",
"I  c #D94C69",
"U  c #FA4266",
"Y  c #FA4A6D",
"T  c #EB5674",
"R  c #F75F7E",
"E  c #D06278",
"W  c #4C6D89",
"Q  c #576585",
"!  c #4D6691",
"~  c #4F7395",
"^  c #676A8A",
"/  c #767C87",
"(  c #68709A",
")  c #797899",
"_  c #727AA6",
"`  c #8F7E82",
"'  c #BF7484",
"]  c #DC6A81",
"[  c #FA6382",
"{  c #68839F",
"}  c #798C9F",
"|  c #5982A9",
" . c #5E87B4",
".. c #648AAF",
"X. c #7F81AA",
"o. c #6588B3",
"O. c #7F84B1",
"+. c #77A7D3",
"@. c #7EB2E2",
"#. c #86858C",
"$. c #9D8489",
"%. c #978C8F",
"&. c #848990",
"*. c #988E90",
"=. c #989396",
"-. c #A38C91",
";. c #A4989B",
":. c #9187A3",
">. c #9F9EA3",
",. c #8288B0",
"<. c #8398B7",
"1. c #9790B1",
"2. c #AE9BA1",
"3. c #B59BA5",
"4. c #9BA1A9",
"5. c #9AA8BD",
"6. c #A4A4A4",
"7. c #AFAEAE",
"8. c #B9AAAC",
"9. c #A7AEB6",
"0. c #B7A9B7",
"q. c #BCB2B9",
"w. c #BCBBBB",
"e. c #D98597",
"r. c #ED869B",
"t. c #F889A0",
"y. c #CFB1B1",
"u. c #C0BEBF",
"i. c #D7B8B8",
"p. c #E5BCBC",
"a. c #97AEC5",
"s. c #8FB1D1",
"d. c #97B7D5",
"f. c #B5AAC0",
"g. c #84B6E3",
"h. c #86BBEC",
"j. c #85BDF0",
"k. c #D7BEC5",
"l. c #AAC1DA",
"z. c #8EC0EE",
"x. c #9EC1E2",
"c. c #8AC2F6",
"v. c #92CAFD",
"b. c #9FD0FB",
"n. c #A5C5E4",
"m. c #BCCFE0",
"M. c #ADD0EE",
"N. c #A5D4FF",
"B. c #B1D9FD",
"V. c #BBDDFB",
"C. c #C5C3C4",
"Z. c #CFC3C3",
"A. c #CBCACA",
"S. c #D5C4C6",
"D. c #D1CECD",
"F. c #D1D0CF",
"G. c gray83",
"H. c #DCD6D5",
"J. c #D7D8D8",
"K. c #DDDBDB",
"L. c #E0D6D6",
"P. c #EED3D3",
"I. c #E4DCDB",
"U. c #C9DAEB",
"Y. c #DEE0E1",
"T. c #C7E2F9",
"R. c #C4E2FC",
"E. c #D9E9F8",
"W. c #E4E3E3",
"Q. c #E9E5E4",
"!. c #EDECEC",
"~. c #F4E3E2",
"^. c #F8EEEC",
"/. c #FBF1EF",
"(. c #ECF1F5",
"). c #F3F3F3",
"_. c #F5FAFD",
"`. c white",
/* pixels */
"`.`.`.`.`.`.`.`.`.`.`.`.!.!.`.`.`.`.`.`.`.`.`.`.`.`.`.`.`.`.`.`.",
"`.`.`.`.`.`.`.`.`.`.`.Q.-.$.u.`.!.K.!.`.`.`.`.`.`.`.`.`.`.`.`.`.",
"`.`.`.`.`.`.`.`.`.`.`.;.E T P =.p K $.;.J.`.`.`.`.`.`.`.`.`.`.`.",
"`.`.`.`.`.`.`.`.`.`.`.$.C Y r.e.] R T Z v ` =.w.K.!.`.`.`.`.`.`.",
"`.`.`.`.`.`.`.`.`.`.W.y ] t.[ F S V V V B Z I b % w.`.`.`.`.`.`.",
"`.`.`.`.`.`.`.`.`.W.i J Y S n m V V V V A V V f 8 ).`.`.`.`.`.`.",
"`.`.`.`.`.`.`.`.W.i H G V B j j B V B j j B V z G.`.`.`.`.`.`.`.",
"`.`.`.`.`.`.`.`.%.J F V V V V V V V V m m V V z 7.`.`.`.`.`.`.`.",
"`.`.`.`.`.`.W.%.' Y A V V V V V V V V V V V V c 7 W.`.`.`.`.`.`.",
"`.`.`.`.`.Q.a L U V A V V V V V V V V V V V V A h 5 ).`.`.`.`.`.",
"`.`.`.`.`.*.J r.D V V A V V V V V V V V V V V V B + 7.`.`.`.`.`.",
"`.`.`.`.`.7., * k k x N V m g l n V V V V V V V V n 6 A.`.`.`.`.",
"`.`.`.`.`.`.Y.} r , O @ # $ Q | , s M M c h l d s @ & G.`.`.`.`.",
"`.`.`.`.`.`.`.R.h.! : = : | c.j.+.4 + o % e | ~ u #.J.`.`.`.`.`.",
"`.`.`.`.`.`._.N.o.> : 0 #.5.g.c.v.j...W s.<.3  .b._.`.`.`.`.`.`.",
"`.`.`.`.`.`.E.z.e - t 8.Q.G.a.+.j.v.v.v.n.2.t 1 d._.`.`.`.`.`.`.",
"`.`.`.`.`.`.R.@.< 9 0.P.q.  X &.n.@.j.g./ i.3.; 9.`.`.`.`.`.`.`.",
"`.`.`.`.`.`.E.g.2 > ,.f.L.5 . 8.^.U.l.w i q.) ; m.`.`.`.`.`.`.`.",
"`.`.`.`.`.`.`.U.{ ; ( O.q.I.H.^././.^.H.S.1.Q ..V.`.`.`.`.`.`.`.",
"`.`.`.`.`.`.`.`._./ < _ X.0.P.~.~.~.~.k.:.Q o.v.R._.`.`.`.`.`.`.",
"`.`.`.`.`.`.`.`.`.W.=./ q ^ 3.y.p.i.8.) 4 4.g.v.V._.`.`.`.`.`.`.",
"`.`.`.`.`.`.`.`.`.`.`.).6.=.k.C.S.Z.C.>.6._.x.j.B._.`.`.`.`.`.`.",
"`.`.`.`.`.`.`.`.`.`.`._.A.K.D.w.A.C.A.K.G._.U.g.T.`.`.`.`.`.`.`.",
"`.`.`.`.`.`.`.`.`.`.`.Q.A.W.Q.Q.!.!.W.Q.G.Q._.E.(.`.`.`.`.`.`.`.",
"`.`.`.`.`.`.`.`.`.`._.F.I.!.).).!.!.).).W.G.).M.T.`.`.`.`.`.`.`.",
"`.`.`.`.`.`.`.`.`.`.W.G.!.).).).!.).).).).A.Y.E.E.`.`.`.`.`.`.`.",
"`.`.`.`.`.`.`.`.`._.G.Q.).).).).!.).).).).Q.G.`.`.`.`.`.`.`.`.`.",
"`.`.`.`.`.`.`.`.`.).G.).).).).).).).).).).!.A.).`.`.`.`.`.`.`.`.",
"`.`.`.`.`.`.`.`.`.).G.).).).).).!.).).).).).G.).`.`.`.`.`.`.`.`.",
"`.`.`.`.`.`.`.`.`.).A.G.G.G.G.G.G.G.G.G.G.G.A.).`.`.`.`.`.`.`.`.",
"`.`.`.`.`.`.`.`.`.`.).).).).).).).).).).).).).`.`.`.`.`.`.`.`.`.",
"`.`.`.`.`.`.`.`.`.`.`.`.`.`.`.`.`.`.`.`.`.`.`.`.`.`.`.`.`.`.`.`."
};
