/* XPM */
static char *_c8237de0a224ec3a6bef90c130929f73jSK4Es6AFZOSoBh_19[] = {
/* columns rows colors chars-per-pixel */
"32 32 187 2 ",
"   c #3F2838",
".  c #670C1D",
"X  c #760F23",
"o  c #621326",
"O  c #711628",
"+  c #592737",
"@  c #75273F",
"#  c #60343C",
"$  c #2B324C",
"%  c #313B4E",
"&  c #3B3D51",
"*  c #333A5B",
"=  c #5E3B42",
"-  c #7D2740",
";  c #653C43",
":  c #38435D",
">  c #384C6C",
",  c #3E5874",
"<  c #434459",
"1  c #5E4F52",
"2  c #6D444C",
"3  c #705B5F",
"4  c #4D566A",
"5  c #4D5472",
"6  c #405579",
"7  c #4C5E7B",
"8  c #6E5B6C",
"9  c #725D61",
"0  c #55607F",
"q  c #696365",
"w  c #786A6D",
"e  c #796D70",
"r  c #8D1029",
"t  c #97132C",
"y  c #8B1D36",
"u  c #9E1430",
"i  c #AD112F",
"p  c #A51531",
"a  c #A01D37",
"s  c #B51534",
"d  c #BB1A39",
"f  c #86233C",
"g  c #872C3D",
"h  c #9D273F",
"j  c #C21A3A",
"k  c #D8163C",
"l  c #B43850",
"z  c #D31E42",
"x  c #DE1A40",
"c  c #E41A41",
"v  c #EB1D45",
"b  c #F41D46",
"n  c #F41E48",
"m  c #FF1F4B",
"M  c #DA2E50",
"N  c #FF204C",
"B  c #FF2853",
"V  c #E63659",
"C  c #FE335B",
"Z  c #FB3E63",
"A  c #A9485B",
"S  c #A95868",
"D  c #906971",
"F  c #8C777B",
"G  c #A86673",
"H  c #BE6174",
"J  c #DF4B68",
"K  c #FA466A",
"L  c #FC4E71",
"P  c #EE5574",
"I  c #F45777",
"U  c #D16076",
"Y  c #FA607F",
"T  c #445C84",
"R  c #4C6782",
"E  c #586786",
"W  c #4F718F",
"Q  c #58799A",
"!  c #6A6D87",
"~  c #686F99",
"^  c #7A799A",
"/  c #577DA3",
"(  c #7279A5",
")  c #DB6D83",
"_  c #C17383",
"`  c #E06881",
"'  c #5E89AF",
"]  c #5F84B2",
"[  c #7E80AB",
"{  c #7A91A9",
"}  c #618AB6",
"|  c #688DB7",
" . c #7E84B1",
".. c #6A98C4",
"X. c #6FA1CE",
"o. c #72A0CE",
"O. c #6FA3D1",
"+. c #75A9D9",
"@. c #7CAEDC",
"#. c #7FB4E3",
"$. c #7FB6E9",
"%. c #82898D",
"&. c #9C8086",
"*. c #968A8C",
"=. c #958F90",
"-. c #9B8E91",
";. c #959499",
":. c #A0878C",
">. c #A48B90",
",. c #A49A9C",
"<. c #8086AF",
"1. c #9187A2",
"2. c #9D94AD",
"3. c #9690B1",
"4. c #B49DA4",
"5. c #A3A2A4",
"6. c #A9A7A8",
"7. c #BBA7AA",
"8. c #A2A6B2",
"9. c #B5A6BA",
"0. c #B6B4B4",
"q. c #BCBABB",
"w. c #DE8598",
"e. c #E4889B",
"r. c #F4849B",
"t. c #F7889F",
"y. c #CFB0B1",
"u. c #DEB8B8",
"i. c #E4BCBC",
"p. c #83B2DD",
"a. c #8EB4DB",
"s. c #92B2D1",
"d. c #9BBEDF",
"f. c #B2B0C7",
"g. c #A0BFDD",
"h. c #85B9E8",
"j. c #83BAEC",
"k. c #92BEE5",
"l. c #83BCF0",
"z. c #C6BCC1",
"x. c #B6CCDF",
"c. c #BCCEDD",
"v. c #8DC0EE",
"b. c #86C0F4",
"n. c #89C1F5",
"m. c #8CC6FA",
"M. c #8FC8FD",
"N. c #90C7F9",
"B. c #92CBFF",
"V. c #99CDFC",
"C. c #9ED1FD",
"Z. c #A6C9E9",
"A. c #BAD3E9",
"S. c #AED4F7",
"D. c #A3D3FF",
"F. c #B4DAFC",
"G. c gray77",
"H. c #CEC3C2",
"J. c #CBCACA",
"K. c #D3C6C5",
"L. c #D1CECD",
"P. c #CFC5D1",
"I. c #D2CFD0",
"U. c #CFD3D2",
"Y. c gray83",
"T. c #D7D8D8",
"R. c #DCDBDA",
"E. c #E5D7D7",
"W. c #D7DCE3",
"Q. c #C3DDF4",
"!. c #DFE0E0",
"~. c #C5E3FE",
"^. c #CDE7FD",
"/. c #D6E6F5",
"(. c #DDEEFE",
"). c #E4E3E3",
"_. c #EAE5E5",
"`. c #E7EAEC",
"'. c #ECECEC",
"]. c #F5E4E3",
"[. c #F0ECEC",
"{. c #E4EBF2",
"}. c #ECF5FD",
"|. c #F3F3F3",
" X c #F1F6FB",
".X c #F4FAFE",
"XX c white",
/* pixels */
"XXXXXXXXXXXXXXXXXXXXXXXX`.).XXXXXXXXXXXXXXXXXXXXXXXXXXXXXXXXXXXX",
"XXXXXXXXXXXXXXXXXXXXXX).>.&.q.XX'.Y.`.XXXXXXXXXXXXXXXXXXXXXXXXXX",
"XXXXXXXXXXXXXXXXXXXXXX,.U P H -.w D &.-.I.XXXXXXXXXXXXXXXXXXXXXX",
"XXXXXXXXXXXXXXXXXXXXXX:.M L r.w.` I P M g F -.0.T.`.XXXXXXXXXXXX",
"XXXXXXXXXXXXXXXXXXXX).9 ) t.Y C B m m m b V J l + 0.XXXXXXXXXXXX",
"XXXXXXXXXXXXXXXXXX).q S K B d s m m m v v m m p 3 '.XXXXXXXXXXXX",
"XXXXXXXXXXXXXXXX).q A Z m m j d N m m p t N m h U.XXXXXXXXXXXXXX",
"XXXXXXXXXXXXXXXX=.S C m m m m m m m m n b m m a 6.XXXXXXXXXXXXXX",
"XXXXXXXXXXXX!.*._ K N m m m m m m m m m m m m x 2 R.XXXXXXXXXXXX",
"XXXXXXXXXX).e G K m N m m m m m m m m m m m m N s 1 '.XXXXXXXXXX",
"XXXXXXXXXX-.S e.V b m m m m m m m m m m m m m m n O 5.XXXXXXXXXX",
"XXXXXXXXXX0.= + i s k b b x u f z b m m m m m m N c ; G.XXXXXXXX",
"XXXXXXXXXXXX).{ 0 0 + - @   7 ' < r c v k p f y t X # Y.XXXXXXXX",
"XXXXXXXXXXXXXX~.j.] ..#.#.h.m.n.O.< o . + R } Q E %.T.XXXXXXXXXX",
"XXXXXXXXXXXX.XD.} * T +.M.B.B.B.B.j.' W @.@.6 ] C..XXXXXXXXXXXXX",
"XXXXXXXXXXXX(.v., $ 8 8.d.n.B.B.B.B.B.B.B.o.7 > s.XXXXXXXXXXXXXX",
"XXXXXXXXXXXX~.j.: 5 9.E.q.Q @.M.B.B.B.B.l.a.2.& 8.XXXXXXXXXXXXXX",
"XXXXXXXXXXXX^.m., * <.9.E.q 4 d.h.l.n.$.a.f.^ % c.XXXXXXXXXXXXXX",
"XXXXXXXXXXXX}.V./ $ ~  .9.E.E.'.W.d.p.g.P.3.E { }.XXXXXXXXXXXXXX",
"XXXXXXXXXXXXXXF.l., : ( [ 9.E.].]._.E.z.1.E | F.XXXXXXXXXXXXXXXX",
"XXXXXXXXXXXXXX^.M.X.R ! 4 ! 4.y.i.u.7.^ < Q m.D..XXXXXXXXXXXXXXX",
"XXXXXXXXXXXXXX.XF.m.+.x.6.;.G.G.K.H.G.5.5.A.j.V.}.XXXXXXXXXXXXXX",
"XXXXXXXXXXXXXXXX(.N.p.{.J.R.L.q.J.G.J.R.Y.{.p.b.~.XXXXXXXXXXXXXX",
"XXXXXXXXXXXXXXXX XZ./.).L.)._._.'.'.)._.Y.W.Z.p./.XXXXXXXXXXXXXX",
"XXXXXXXXXXXXXXXXXX X.XY.E.'.|.|.`.[.|.|.).L.|./..XXXXXXXXXXXXXXX",
"XXXXXXXXXXXXXXXXXXXX).Y.[.|.|.|.|.|.|.|.|.Y.R.}..XXXXXXXXXXXXXXX",
"XXXXXXXXXXXXXXXXXX.XY._.|.|.|.|.`.[.|.|.|.).Y.Q.S.XXXXXXXXXXXXXX",
"XXXXXXXXXXXXXXXXXX|.Y.|.|.|.|.|.|.|.|.|.|.|.J.x.k.}.XXXXXXXXXXXX",
"XXXXXXXXXXXXXXXXXX|.Y.|.|.|.|.|.`.|.|.|.|.|.Y.`. XXXXXXXXXXXXXXX",
"XXXXXXXXXXXXXXXXXX|.J.Y.Y.Y.Y.Y.Y.Y.Y.Y.Y.Y.J.|.XXXXXXXXXXXXXXXX",
"XXXXXXXXXXXXXXXXXXXX|.|.|.|.|.|.|.|.|.|.|.|.|.XXXXXXXXXXXXXXXXXX",
"XXXXXXXXXXXXXXXXXXXXXXXXXXXXXXXXXXXXXXXXXXXXXXXXXXXXXXXXXXXXXXXX"
};
