/* XPM */
static char *_c8237de0a224ec3a6bef90c130929f73jSK4Es6AFZOSoBh_7[] = {
/* columns rows colors chars-per-pixel */
"32 32 182 2 ",
"   c #26252A",
".  c #353639",
"X  c #6A1928",
"o  c #641E35",
"O  c #582932",
"+  c #403E3E",
"@  c #5E363F",
"#  c #60253A",
"$  c #7B263A",
"%  c #352A43",
"&  c #34374E",
"*  c #333B4F",
"=  c #293656",
"-  c #343C5E",
";  c #333E65",
":  c #5A2D42",
">  c #423044",
",  c #68314A",
"<  c #334365",
"1  c #3B4E69",
"2  c #4F475E",
"3  c #46495B",
"4  c #555352",
"5  c #72434C",
"6  c #6E4D53",
"7  c #65595C",
"8  c #72545A",
"9  c #404560",
"0  c #48526D",
"q  c #555161",
"w  c #4A5072",
"e  c #6A5D65",
"r  c #705C69",
"t  c #576279",
"y  c #6A6A6C",
"u  c #766669",
"i  c #77686C",
"p  c #62607E",
"a  c #77787A",
"s  c #8F142C",
"d  c #9A122C",
"f  c #8E1B35",
"g  c #B20F2E",
"h  c #A51733",
"j  c #A91532",
"k  c #AE1835",
"l  c #B41634",
"z  c #83273B",
"x  c #982138",
"c  c #C41335",
"v  c #C81538",
"b  c #D7143B",
"n  c #D4193D",
"m  c #DB193F",
"M  c #962F42",
"N  c #AF354D",
"B  c #DB1D42",
"V  c #E51B43",
"C  c #EC1A43",
"Z  c #F31C46",
"A  c #F81D47",
"S  c #F31F48",
"D  c #FE1F4B",
"F  c #DE294C",
"G  c #D93253",
"H  c #FF204C",
"J  c #EE2950",
"K  c #E13355",
"L  c #FD325A",
"P  c #FC3C61",
"I  c #B1495E",
"U  c #B05769",
"Y  c #946C74",
"T  c #8D797D",
"R  c #AD6E7C",
"E  c #B76172",
"W  c #DF4B68",
"Q  c #D65E76",
"!  c #E44867",
"~  c #FA4568",
"^  c #EE5472",
"/  c #F75676",
"(  c #E2667F",
")  c #4C628C",
"_  c #586287",
"`  c #587398",
"'  c #696E8B",
"]  c #72738A",
"[  c #6A739D",
"{  c #777698",
"}  c #597AA4",
"|  c #737BA7",
" . c #9A7D83",
".. c #C17887",
"X. c #E07087",
"o. c #5F84A9",
"O. c #6289AE",
"+. c #7690AE",
"@. c #6795BF",
"#. c #6893BB",
"$. c #7291B8",
"%. c #73A2CE",
"&. c #74ABDC",
"*. c #7CACD8",
"=. c #79AFE0",
"-. c #79B0E2",
";. c #7FB7E9",
":. c #9B8086",
">. c #918789",
",. c #96878A",
"<. c #8E8A91",
"1. c #9B8D90",
"2. c #999497",
"3. c #A2878D",
"4. c #8884A6",
"5. c #9B9CA5",
"6. c #8287B1",
"7. c #958FB0",
"8. c #8498B6",
"9. c #A09FA0",
"0. c #B295A5",
"q. c #B69DA2",
"w. c #B8A6A9",
"e. c #B0ADAE",
"r. c #B5B0AF",
"t. c #B6A9B6",
"y. c #B2B1B2",
"u. c #BAB2B7",
"i. c #BEBCBC",
"p. c #C68290",
"a. c #DE8497",
"s. c #F5879D",
"d. c #C2AFB8",
"f. c #D6B6B7",
"g. c #E5BCBC",
"h. c #8BACCC",
"j. c #81B1DE",
"k. c #96BADB",
"l. c #B6ACC1",
"z. c #83B5E4",
"x. c #88BBEA",
"c. c #D6BEC5",
"v. c #8AC3F6",
"b. c #92CAFE",
"n. c #9FD0FC",
"m. c #B7CEE4",
"M. c #B6D9FA",
"N. c #BADDFB",
"B. c #C3C2C2",
"V. c #CBCACB",
"C. c #D3C4C5",
"Z. c #D0CECE",
"A. c #D0CFD5",
"S. c #D5D5D4",
"D. c #DFD6D4",
"F. c #DCD8D7",
"G. c #D7D9D9",
"H. c gainsboro",
"J. c #E0D6D6",
"K. c #EFD4D5",
"L. c #E3DDDD",
"P. c #F1E0DF",
"I. c #C1D3E3",
"U. c #D7DDE1",
"Y. c #C3DDF5",
"T. c #DCE0E2",
"R. c #C6E2FC",
"E. c #D2E2F0",
"W. c #D8EDFF",
"Q. c #E4E3E3",
"!. c #E9E4E3",
"~. c #E6E7EA",
"^. c #ECECEC",
"/. c #F5E5E4",
"(. c #F0EFEE",
"). c #F8EEEC",
"_. c #FBF1EF",
"`. c #F0EFF0",
"'. c #F3F3F3",
"]. c #F9F4F5",
"[. c #F3F8FD",
"{. c white",
/* pixels */
"{.{.{.{.{.{.{.{.{.{.{.{.Q.~.{.{.{.{.{.{.{.{.{.{.{.{.{.{.{.{.{.{.",
"{.{.{.{.{.{.{.{.{.{.{.L.3.:.i.{.~.S.~.{.{.{.{.{.{.{.{.{.{.{.{.{.",
"{.{.{.{.{.{.{.{.{.{.{.1.Q ^ E ,.u Y :.1.S.{.{.{.{.{.{.{.{.{.{.{.",
"{.{.{.{.{.{.{.{.{.{.{. .F / s.a.( / ^ G z T 1.u.G.~.{.{.{.{.{.{.",
"{.{.{.{.{.{.{.{.{.{.H.8 X.s./ L H D D D Z K W N O B.{.{.{.{.{.{.",
"{.{.{.{.{.{.{.{.{.H.e U ~ J h j S D D B B D D d u '.{.{.{.{.{.{.",
"{.{.{.{.{.{.{.{.H.7 I P D D V V D D S k k S D M G.{.{.{.{.{.{.{.",
"{.{.{.{.{.{.{.{.>.U L D D D D D D D D H H D D x y.{.{.{.{.{.{.{.",
"{.{.{.{.{.{.H.>...~ H D D D D D D D D D D D D n 6 Q.{.{.{.{.{.{.",
"{.{.{.{.{.L.i R ! C D D D D D D D D D D D D D H h 7 '.{.{.{.{.{.",
"{.{.{.{.{.,.E p.$ c m V C A A Z C Z D D D D D D S X e.{.{.{.{.{.",
"{.{.{.{.{.e.@ 3 1 # l l s $ z c b b v n m C C D H m 8 `.{.{.{.{.",
"{.{.{.{.{.{.T.k.&.} % % 0 @.#.: d f 2 t , g b c j v z H.{.{.{.{.",
"{.{.{.{.{.{.{.N.z.) ; = < ` x.*.` $.v.b.#.p o >   O 5 Q.{.{.{.{.",
"{.{.{.{.{.{.[.n.} - = q <.5.k.;.v.b.b.b.M.8.= } k.U.Q.{.{.{.{.{.",
"{.{.{.{.{.{.W.j.< & r d.!.D.V.h.*.=.;.z.A.q.r 1 k.{.{.{.{.{.{.{.",
"{.{.{.{.{.{.Y.%.= w t.K.r.  + 2.~.m.h.O.y f.0.& y.{.{.{.{.{.{.{.",
"{.{.{.{.{.{.[.E.t - 6.l.J.4 . u._._.y.. y u.{ * I.{.{.{.{.{.{.{.",
"{.{.{.{.{.{.{.{.y.* [ 6.d.L.J.)._._.).D.C.7._ o.R.{.{.{.{.{.{.{.",
"{.{.{.{.{.{.{.{.{.a 9 | 6.t.K./././.P.c.4.' +.x.R.{.{.{.{.{.{.{.",
"{.{.{.{.{.{.{.{.{.H.<.] w ] q.f.g.f.w.{ 3 y.m.-.M.{.{.{.{.{.{.{.",
"{.{.{.{.{.{.{.{.{.{.{.(.9.2.d.B.C.C.B.5.9.{.E.x.M.{.{.{.{.{.{.{.",
"{.{.{.{.{.{.{.{.{.{.{.].V.F.Z.i.V.B.V.F.S.].{.[.{.{.{.{.{.{.{.{.",
"{.{.{.{.{.{.{.{.{.{.{.Q.Z.Q.!.!.^.^.Q.!.S.Q.{.{.{.{.{.{.{.{.{.{.",
"{.{.{.{.{.{.{.{.{.{.].Z.L.^.'.'.~.'.'.'.Q.S.].{.{.{.{.{.{.{.{.{.",
"{.{.{.{.{.{.{.{.{.{.Q.S.(.'.'.'.'.'.'.'.'.V.Q.{.{.{.{.{.{.{.{.{.",
"{.{.{.{.{.{.{.{.{.].S.~.'.'.'.'.!.'.'.'.'.Q.S.{.{.{.{.{.{.{.{.{.",
"{.{.{.{.{.{.{.{.{.^.S.'.'.'.'.'.'.'.'.'.'.^.V.'.{.{.{.{.{.{.{.{.",
"{.{.{.{.{.{.{.{.{.^.S.'.'.'.'.'.!.'.'.'.'.'.S.'.{.{.{.{.{.{.{.{.",
"{.{.{.{.{.{.{.{.{.'.V.S.S.S.S.S.S.S.S.S.S.S.V.'.{.{.{.{.{.{.{.{.",
"{.{.{.{.{.{.{.{.{.{.'.'.'.'.'.'.'.'.'.`.^.^.'.{.{.{.{.{.{.{.{.{.",
"{.{.{.{.{.{.{.{.{.{.{.{.{.{.{.{.{.{.{.{.{.{.{.{.{.{.{.{.{.{.{.{."
};
