/* XPM */
static char *_c8237de0a224ec3a6bef90c130929f73jSK4Es6AFZOSoBh_3[] = {
/* columns rows colors chars-per-pixel */
"32 32 175 2 ",
"   c #1F1E1E",
".  c #212020",
"X  c #313239",
"o  c #5F1B28",
"O  c #57353B",
"+  c #7F2C3C",
"@  c #34364C",
"#  c #2A3356",
"$  c #333A50",
"%  c #323B62",
"&  c #46384C",
"*  c #773B46",
"=  c #733852",
"-  c #384669",
";  c #524E5F",
":  c #505059",
">  c #76435E",
",  c #685C5F",
"<  c #74585E",
"1  c #484D6C",
"2  c #5B5D63",
"3  c #485577",
"4  c #515775",
"5  c #645464",
"6  c #745D61",
"7  c #655C79",
"8  c #59637F",
"9  c #696466",
"0  c #74686B",
"q  c #9C0E29",
"w  c #991731",
"e  c #A9112E",
"r  c #A31731",
"t  c #A91834",
"y  c #B51736",
"u  c #8A2039",
"i  c #93253B",
"p  c #CB1538",
"a  c #CE193C",
"s  c #D9163C",
"d  c #842C47",
"f  c #972E48",
"g  c #933042",
"h  c #8A3952",
"j  c #A83C51",
"k  c #DD1C42",
"l  c #E51B43",
"z  c #ED1B45",
"x  c #F51D47",
"c  c #F61E49",
"v  c #FE1F4B",
"b  c #CD3452",
"n  c #D53756",
"m  c #E6284E",
"M  c #FE214C",
"N  c #EC2E53",
"B  c #FF2752",
"V  c #FE2B55",
"C  c #FF385F",
"Z  c #FC3D62",
"A  c #AE4B5F",
"S  c #AD5567",
"D  c #8D6A75",
"F  c #98737B",
"G  c #AE6A78",
"H  c #D44F6A",
"J  c #CD5169",
"K  c #E24665",
"L  c #F9476B",
"P  c #FC4B6E",
"I  c #E65773",
"U  c #D9667D",
"Y  c #F2627F",
"T  c #475C86",
"R  c #586287",
"E  c #59748E",
"W  c #686C88",
"Q  c #69718B",
"!  c #7D7E83",
"~  c #677797",
"^  c #787596",
"/  c #5A7BA3",
"(  c #597DA9",
")  c #6F77A3",
"_  c #757EAC",
"`  c #807B88",
"'  c #AE7581",
"]  c #C07987",
"[  c #F86381",
"{  c #E47088",
"}  c #5982AA",
"|  c #6F8AAA",
" . c #6389B6",
".. c #6E9DC7",
"X. c #79A4CF",
"o. c #79A8D4",
"O. c #79A9D6",
"+. c #7DB0DD",
"@. c #7CB4E6",
"#. c #8A8689",
"$. c #94878A",
"%. c #94888B",
"&. c #9C888D",
"*. c #8F8E90",
"=. c #9D8E91",
"-. c #999599",
";. c #A0888D",
":. c #A69D9C",
">. c #8D87A8",
",. c #8E95A5",
"<. c #9C9CA1",
"1. c #8387B0",
"2. c #8796B9",
"3. c #9691B1",
"4. c #AA9FA1",
"5. c #B198A1",
"6. c #97A7B9",
"7. c #A0A0A1",
"8. c #ADACAE",
"9. c #B7A5A9",
"0. c #BDA8B9",
"q. c #ACB4BC",
"w. c #BCBCBC",
"e. c #D68999",
"r. c #F1849A",
"t. c #F78AA1",
"y. c #C6B0BB",
"u. c #D8B7B8",
"i. c #E4BCBC",
"p. c #88AFD1",
"a. c #86B0D8",
"s. c #92B8DC",
"d. c #84B9EA",
"f. c #C0B2C3",
"g. c #CABAC6",
"h. c #96C1E7",
"j. c #8BC4F8",
"k. c #92CBFE",
"l. c #9BCDFB",
"z. c #A8C7E3",
"x. c #B2D9FC",
"c. c #BBDEFC",
"v. c #C3C2C3",
"b. c #C4C4C7",
"n. c #CBCACA",
"m. c #D7C5C6",
"M. c #D0C8C7",
"N. c #D2CECD",
"B. c #D9D0CE",
"V. c #CFD4D8",
"C. c gray83",
"Z. c #D7D7D6",
"A. c #DADADA",
"S. c #E8CDCD",
"D. c #E7D9DA",
"F. c #E2DEDD",
"G. c #F0DBDB",
"H. c #DFE0DF",
"J. c #E3E0DF",
"K. c #C5D6E5",
"L. c #C3DEFA",
"P. c #E0DFE0",
"I. c #C7E3FC",
"U. c #D4E7F7",
"Y. c #E4E3E3",
"T. c #EBE4E3",
"R. c #ECECEC",
"E. c #F6E8E7",
"W. c #FBF1EF",
"Q. c #EBF5FD",
"!. c #F4F4F4",
"~. c #FDF3F1",
"^. c #F8F8F7",
"/. c #F5FAFE",
"(. c white",
/* pixels */
"(.(.(.(.(.(.(.(.(.(.(.(.R.!.(.(.(.(.(.(.(.(.(.(.(.(.(.(.(.(.(.(.",
"(.(.(.(.(.(.(.(.(.(.(.Y.;.&.n.(.R.H.!.(.(.(.(.(.(.(.(.(.(.(.(.(.",
"(.(.(.(.(.(.(.(.(.(.(.=.U I G -.0 D &.4.F.(.(.(.(.(.(.(.(.(.(.(.",
"(.(.(.(.(.(.(.(.(.(.(.F m P r.e.U [ I b * %.-.v.Y.!.(.(.(.(.(.(.",
"(.(.(.(.(.(.(.(.(.(.A.< { t.[ C B v v v z n H j O v.(.(.(.(.(.(.",
"(.(.(.(.(.(.(.(.(.A.9 S L N t y x v c l l v v r 6 !.(.(.(.(.(.(.",
"(.(.(.(.(.(.(.(.A., A Z v c k k v v z r t x v g C.(.(.(.(.(.(.(.",
"(.(.(.(.(.(.(.(.#.S V v v v v v v v v v v v v i w.(.(.(.(.(.(.(.",
"(.(.(.(.(.(.A.=.] L v v v v v v v v v v v v v a < R.(.(.(.(.(.(.",
"(.(.(.(.(.Y.0 G K z v M M v v M v M v v v v v v w 0 !.(.(.(.(.(.",
"(.(.(.(.(.$.' e.J y u f Y B c s s x v v v v v v z o w.(.(.(.(.(.",
"(.(.(.(.(.8.%.$.Q Q o.~ D h d 7 = e z v v c z c M a 6 !.(.(.(.(.",
"(.(.(.(.(.(.(.U.k.o. .( } ..+.k.o.& q p p f h a z l + Y.(.(.(.(.",
"(.(.(.(.(.(.(.c.d.T % # - ( @.k.k.o.8 7 W o.X.> u i * Y.(.(.(.(.",
"(.(.(.(.(.(.Q.l./ % # ; ` ,.s.d.j.k.k.x.L.2.T  .p.V.A.^.(.(.(.(.",
"(.(.(.(.(.(.Q.a.- @ 5 5.:.#.#.6.s.X.E #.:.=.5 3 z.(.(.(.(.(.(.(.",
"(.(.(.(.(.(.(.b.X 4 0.S.8.. X :.R.P.9   2 u.5.@ q.(.(.(.(.(.(.(.",
"(.(.(.(.(.(.(.^.2 - 2.f.T.N.M.D.W.W.D.M.B.g.^ $ K.(.(.(.(.(.(.(.",
"(.(.(.(.(.(.(.(.<.$ ) 1.g.W.~.W.W.W.~.~.D.3.R / I.(.(.(.(.(.(.(.",
"(.(.(.(.(.(.(.(.^.9 1 _ 1.y.G.E.E.E.E.m.>.Q | d.I./.(.(.(.(.(.(.",
"(.(.(.(.(.(.(.(.(.C.! W 4 ^ 9.u.i.u.9.^ : 8.z.@.c./.(.(.(.(.(.(.",
"(.(.(.(.(.(.(.(.(.(.(.Y.*.-.w.v.m.M.w.-.7.(.U.h.x./.(.(.(.(.(.(.",
"(.(.(.(.(.(.(.(.(.(.(.^.n.A.n.w.b.v.n.C.C.(.(././.(.(.(.(.(.(.(.",
"(.(.(.(.(.(.(.(.(.(.(.Y.n.Y.Y.Y.R.R.J.Y.N.R.(.(.(.(.(.(.(.(.(.(.",
"(.(.(.(.(.(.(.(.(.(.^.N.F.R.!.!.Y.!.!.!.F.C.(.(.(.(.(.(.(.(.(.(.",
"(.(.(.(.(.(.(.(.(.(.Y.C.R.!.!.!.!.!.!.!.!.n.Y.(.(.(.(.(.(.(.(.(.",
"(.(.(.(.(.(.(.(.(.!.C.R.!.!.!.!.Y.!.!.!.!.Y.C.(.(.(.(.(.(.(.(.(.",
"(.(.(.(.(.(.(.(.(.R.C.!.!.!.!.!.!.!.!.!.!.R.n.!.(.(.(.(.(.(.(.(.",
"(.(.(.(.(.(.(.(.(.R.A.!.!.!.!.!.Y.!.!.!.!.!.C.!.(.(.(.(.(.(.(.(.",
"(.(.(.(.(.(.(.(.(.R.n.A.A.A.A.A.C.A.A.A.A.A.n.!.(.(.(.(.(.(.(.(.",
"(.(.(.(.(.(.(.(.(.^.R.R.R.R.R.R.R.R.R.R.R.R.R.(.(.(.(.(.(.(.(.(.",
"(.(.(.(.(.(.(.(.(.(.(.(.(.(.(.(.(.(.(.(.(.(.(.(.(.(.(.(.(.(.(.(."
};
