/* XPM */
static char *_c8237de0a224ec3a6bef90c130929f73jSK4Es6AFZOSoBh_18[] = {
/* columns rows colors chars-per-pixel */
"32 32 184 2 ",
"   c #730C1F",
".  c #541629",
"X  c #6A1526",
"o  c #412332",
"O  c #5B2A36",
"+  c #5D333C",
"@  c #692332",
"#  c #7C223A",
"$  c #2B324C",
"%  c #333B49",
"&  c #3C3B4E",
"*  c #2F3D61",
"=  c #313B60",
"-  c #493A52",
";  c #2F4059",
":  c #39455E",
">  c #3B4E6A",
",  c #38536D",
"<  c #414458",
"1  c #545252",
"2  c #68434A",
"3  c #6E4B52",
"4  c #68565A",
"5  c #454B69",
"6  c #47546E",
"7  c #435B77",
"8  c #535672",
"9  c #515E77",
"0  c #665869",
"q  c #735D61",
"w  c #6C6466",
"e  c #786D6F",
"r  c #636A7F",
"t  c #796D70",
"y  c #811025",
"u  c #98112B",
"i  c #971D37",
"p  c #A3122D",
"a  c #A61532",
"s  c #AA1633",
"d  c #AA1934",
"f  c #B71131",
"g  c #8A213C",
"h  c #9A273E",
"j  c #C31335",
"k  c #D9193E",
"l  c #833141",
"z  c #B03B52",
"x  c #DD1C42",
"c  c #E11C42",
"v  c #ED1A44",
"b  c #F41C46",
"n  c #F31E48",
"m  c #FF1F4B",
"M  c #DC274A",
"N  c #D73454",
"B  c #FE204C",
"V  c #F82A53",
"C  c #EE3B5E",
"Z  c #FE355C",
"A  c #FB3F65",
"S  c #A7495C",
"D  c #A74F61",
"F  c #A45A69",
"G  c #8C6A72",
"H  c #A66371",
"J  c #B46272",
"K  c #D94D69",
"L  c #FA4266",
"P  c #FA4A6D",
"I  c #EB5875",
"U  c #D16379",
"Y  c #F7617F",
"T  c #435C83",
"R  c #4C658E",
"E  c #5D668B",
"W  c #53708E",
"Q  c #4E7294",
"!  c #517395",
"~  c #777D80",
"^  c #6C7698",
"/  c #787593",
"(  c #577FA5",
")  c #787CA5",
"_  c #BE7483",
"`  c #DC6A81",
"'  c #FA6583",
"]  c #728397",
"[  c #5F82AA",
"{  c #5F8AB1",
"}  c #6F89A4",
"|  c #6386B4",
" . c #618EBA",
".. c #6392BC",
"X. c #6C90B8",
"o. c #699CC8",
"O. c #6FA6D8",
"+. c #75A8D6",
"@. c #76ACDD",
"#. c #7CAEDB",
"$. c #78AFE1",
"%. c #7EB1E0",
"&. c #988589",
"*. c #948F93",
"=. c #9D9899",
"-. c #A38C91",
";. c #A3979A",
":. c #8182AB",
">. c #988CA7",
",. c #9A9AA0",
"<. c #8288B1",
"1. c #9C94B3",
"2. c #B89BA6",
"3. c #8CA5BE",
"4. c #ACAAAB",
"5. c #BBA7AB",
"6. c #A0A8B0",
"7. c #B8A9B5",
"8. c #B6B7B6",
"9. c #BDBBBB",
"0. c #D98597",
"q. c #E88B9F",
"w. c #F4829A",
"e. c #F88AA1",
"r. c #D8B5B5",
"t. c #E5BBBC",
"y. c #83AFD7",
"u. c #95B7D7",
"i. c #B9ADC1",
"p. c #A3B6C9",
"a. c #B7B9CB",
"s. c #87BAEA",
"d. c #82BAED",
"f. c #86BEF2",
"g. c #C3B3C0",
"h. c #C2BFC0",
"j. c #B9CAD9",
"k. c #9BC0E4",
"l. c #88C1F4",
"z. c #8EC6FB",
"x. c #8FC8FD",
"c. c #93CAFE",
"v. c #9FD0FD",
"b. c #A0C5E6",
"n. c #B3CBE3",
"m. c #B4D0E9",
"M. c #A3D2FE",
"N. c #ABD4F9",
"B. c #B7D7F4",
"V. c #BEE0FD",
"C. c #C4C3C3",
"Z. c gray78",
"A. c #CCCBCB",
"S. c #D7C5C6",
"D. c #D0CDCD",
"F. c #D8D1CF",
"G. c #C0C8D7",
"H. c #D6CAD4",
"J. c #CDD1D0",
"K. c #D6D5D5",
"L. c #DAD7D6",
"P. c #DADADB",
"I. c #E5D7D7",
"U. c #F0D9D9",
"Y. c #E5E0DF",
"T. c #CBDEEF",
"R. c #C5DFF7",
"E. c #DEE0E1",
"W. c #C4E3FF",
"Q. c #CAE4FC",
"!. c #DBEEFE",
"~. c #E5E4E4",
"^. c #E9E6E5",
"/. c #E5E7EC",
"(. c #EEEDED",
"). c #F6E6E5",
"_. c #F7EDEB",
"`. c #E6EDF3",
"'. c #EFF0F0",
"]. c #EAF4FC",
"[. c #F3F3F3",
"{. c #F1F4F8",
"}. c #F3FAFF",
"|. c white",
/* pixels */
"|.|.|.|.|.|.|.|.|.|.|.|.(.(.|.|.|.|.|.|.|.|.|.|.|.|.|.|.|.|.|.|.",
"|.|.|.|.|.|.|.|.|.|.|.^.-.&.h.|.[.P.(.|.|.|.|.|.|.|.|.|.|.|.|.|.",
"|.|.|.|.|.|.|.|.|.|.|.;.U I J =.t G &.;.L.|.|.|.|.|.|.|.|.|.|.|.",
"|.|.|.|.|.|.|.|.|.|.|.&.M P w.0.` Y I N l &.=.9.E.(.|.|.|.|.|.|.",
"|.|.|.|.|.|.|.|.|.|.~.q ` e.' Z V m m m b N K z O 8.|.|.|.|.|.|.",
"|.|.|.|.|.|.|.|.|.~.w D P V d s n m m c c m m a 4 (.|.|.|.|.|.|.",
"|.|.|.|.|.|.|.|.~.w S A m m c c m m n s a n m h J.|.|.|.|.|.|.|.",
"|.|.|.|.|.|.|.|.*.F Z m m m m m m m m m m m m i 4.|.|.|.|.|.|.|.",
"|.|.|.|.|.|.~.*._ P B m m m m m m m m m m m m k 3 ~.|.|.|.|.|.|.",
"|.|.|.|.|.^.e H L B m m m m m m m m m m m m m B d 4 '.|.|.|.|.|.",
"|.|.|.|.|.&.J q.C m m m m m m m m m m m m m m m n X 4.|.|.|.|.|.",
"|.|.|.|.|.4.+ @ f j k b m c a i x m m m m m m m B x 2 Z.|.|.|.|.",
"|.|.|.|.|.|.P.] 8 - . g # o 6 ( - u v v c s g i p y O A.|.|.|.|.",
"|.|.|.|.|.|.|.V.d.R T ..+.%.l.d.o.& X   O 9 { ! 9 ~ K.|.|.|.|.|.",
"|.|.|.|.|.|.}.M.| = * ^ k.z.c.c.z.@.Q 7 +.#.T  .v.}.|.|.|.|.|.|.",
"|.|.|.|.|.|.!.s.7 $ 0 5.G.+.z.c.c.c.z.c.x.X.0 > u.|.|.|.|.|.|.|.",
"|.|.|.|.|.|.W.s.; 6 7.U.7.: ..d.x.c.c.z.#.a.2.& 6.|.|.|.|.|.|.|.",
"|.|.|.|.|.|.Q.l., : <.i.L.1 % p.b.f.f.$.3.g.) % j.|.|.|.|.|.|.|.",
"|.|.|.|.|.|.].c.Q $ ^ <.g.I.F._./.n.n.n.H.1.E } ].|.|.|.|.|.|.|.",
"|.|.|.|.|.|.}.N.@.> 5 ) :.7.U.).).).).S.>.E [ B.|.|.|.|.|.|.|.|.",
"|.|.|.|.|.|.|.Q.f. .7 r 8 / 2.r.t.r.5./ < W @.M.}.|.|.|.|.|.|.|.",
"|.|.|.|.|.|.|.}.N.O.+.j.=.*.9.C.S.S.C.,.=.n.+.c.].|.|.|.|.|.|.|.",
"|.|.|.|.|.|.|.|.].m.T.{.A.L.D.9.Z.C.Z.L.K.`.#.d.Q.|.|.|.|.|.|.|.",
"|.|.|.|.|.|.|.|.|.|.|.^.A.Y.~.~.(.(.~.^.K.E.b.#.Q.|.|.|.|.|.|.|.",
"|.|.|.|.|.|.|.|.|.|.|.K.I.(.[.[.^.'.[.[.~.K.`.k.R.|.|.|.|.|.|.|.",
"|.|.|.|.|.|.|.|.|.|.^.K.(.[.[.[.[.[.[.[.[.D.j.+.B.|.|.|.|.|.|.|.",
"|.|.|.|.|.|.|.|.|.|.K.^.[.[.[.[.^.(.[.[.[.^.p.y.T.|.|.|.|.|.|.|.",
"|.|.|.|.|.|.|.|.|.[.K.[.[.[.[.[.[.[.[.[.[.(.Z./.|.|.|.|.|.|.|.|.",
"|.|.|.|.|.|.|.|.|.[.K.[.[.[.[.[.(.[.[.[.[.[.K.[.|.|.|.|.|.|.|.|.",
"|.|.|.|.|.|.|.|.|.[.Z.K.K.K.L.L.K.K.K.K.K.L.Z.[.|.|.|.|.|.|.|.|.",
"|.|.|.|.|.|.|.|.|.|.(.(.(.(.(.(.(.(.(.(.(.(.[.|.|.|.|.|.|.|.|.|.",
"|.|.|.|.|.|.|.|.|.|.|.|.|.|.|.|.|.|.|.|.|.|.|.|.|.|.|.|.|.|.|.|."
};
