/* XPM */
static char *_c8237de0a224ec3a6bef90c130929f73jSK4Es6AFZOSoBh_2[] = {
/* columns rows colors chars-per-pixel */
"32 32 186 2 ",
"   c #101010",
".  c #232222",
"X  c #771528",
"o  c #53242D",
"O  c #2F334F",
"+  c #333847",
"@  c #2C355A",
"#  c #3B3D50",
"$  c #333A58",
"%  c #303C60",
"&  c #782940",
"*  c #6D3F48",
"=  c #75384A",
"-  c #3C405A",
";  c #3A4866",
":  c #3B4D73",
">  c #444343",
",  c #4F4852",
"<  c #70424B",
"1  c #6F5A5E",
"2  c #454C6D",
"3  c #544F61",
"4  c #4B526A",
"5  c #454F73",
"6  c #435A7F",
"7  c #724B66",
"8  c #705C67",
"9  c #6E5775",
"0  c #686062",
"q  c #78666D",
"w  c #6F6E70",
"e  c #7A6677",
"r  c #777679",
"t  c #811027",
"y  c #90122B",
"u  c #881E33",
"i  c #A51531",
"p  c #A51A35",
"a  c #AF1A37",
"s  c #B91434",
"d  c #B51836",
"f  c #BF183A",
"g  c #8A293B",
"h  c #A0263E",
"j  c #CA1437",
"k  c #D1183C",
"l  c #812C43",
"z  c #8A3345",
"x  c #8F3450",
"c  c #B83650",
"v  c #D71D41",
"b  c #E81740",
"n  c #E31A41",
"m  c #EB1B44",
"M  c #F31D47",
"N  c #F81D47",
"B  c #F51E48",
"V  c #FE1F4B",
"C  c #D9284B",
"Z  c #DE3556",
"A  c #FE214C",
"S  c #F72951",
"D  c #E43053",
"F  c #FC3159",
"G  c #FC3D62",
"H  c #81475C",
"J  c #AF485C",
"K  c #AE5769",
"L  c #926972",
"P  c #847879",
"I  c #A86E7A",
"U  c #C45C71",
"Y  c #D15C74",
"T  c #E34A69",
"R  c #F94569",
"E  c #F25272",
"W  c #F95878",
"Q  c #C26073",
"!  c #435A82",
"~  c #5A658A",
"^  c #5F799A",
"/  c #6A6C8B",
"(  c #7A7A8F",
")  c #676F99",
"_  c #657697",
"`  c #757AA3",
"'  c #9C7E84",
"]  c #DB6E84",
"[  c #C07887",
"{  c #E46982",
"}  c #6F819B",
"|  c #5980AA",
" . c #7D80AB",
".. c #7A90AC",
"X. c #6A8EB2",
"o. c #7E84B1",
"O. c #6C92BF",
"+. c #6D9ECD",
"@. c #6FA0CC",
"#. c #76ADDF",
"$. c #7BACD9",
"%. c #7AB1E4",
"&. c #848486",
"*. c #8D8687",
"=. c #9E868A",
"-. c #938B8C",
";. c #9A888C",
":. c #938A94",
">. c #999192",
",. c #96959B",
"<. c #9E999B",
"1. c #A4888E",
"2. c #A69699",
"3. c #A39D9C",
"4. c #8087AF",
"5. c #9087A2",
"6. c #949EAA",
"7. c #9891B1",
"8. c #B69DA6",
"9. c #8EA0BD",
"0. c #A5A6A9",
"q. c #BAA7AA",
"w. c #B1AAAA",
"e. c #B7B1AF",
"r. c #A3ADBB",
"t. c #B7A5B7",
"y. c #B0A5BC",
"u. c #B6B3B3",
"i. c #BCBBBC",
"p. c #CD8997",
"a. c #E28599",
"s. c #F6869D",
"d. c #CEB4B5",
"f. c #DEB7B7",
"g. c #E5BBBC",
"h. c #85A5CA",
"j. c #8FB0CF",
"k. c #88B3DA",
"l. c #98B3D0",
"z. c #A4AFC2",
"x. c #81B8E7",
"c. c #85BBEB",
"v. c #91BEE6",
"b. c #85BDF0",
"n. c #C6BFC5",
"m. c #D3BDC4",
"M. c #BACBDA",
"N. c #95C4EF",
"B. c #92CBFF",
"V. c #9CD1FF",
"C. c #BACDE4",
"Z. c #BDD4E9",
"A. c #AFD4F6",
"S. c #BEDDF9",
"D. c #C5C4C4",
"F. c #CDC2C1",
"G. c #CBCACA",
"H. c #D4C6C5",
"J. c #D1CFCF",
"K. c #CDD0CF",
"L. c gray83",
"P. c #DFD7D5",
"I. c #D7DADB",
"U. c #DCDCDB",
"Y. c #E8CBCC",
"T. c #E8D2D4",
"R. c #E4DDDC",
"E. c #F0E0DF",
"W. c #EDDFE1",
"Q. c #D7E1E6",
"!. c #C6E2FC",
"~. c #CEE3FA",
"^. c #DCF0FF",
"/. c #E5E4E4",
"(. c #E9E6E6",
"). c #E7E8E8",
"_. c #EDECEC",
"`. c #F3E4E3",
"'. c #F3EBEB",
"]. c #FBF1EF",
"[. c #E0EDF8",
"{. c #EFF5FB",
"}. c #F3F3F3",
"|. c #FDF3F1",
" X c #F2F9FE",
".X c white",
/* pixels */
".X.X.X.X.X.X.X.X.X.X.X.X/./..X.X.X.X.X.X.X.X.X.X.X.X.X.X.X.X.X.X",
".X.X.X.X.X.X.X.X.X.X.X/.1.' u. X).G./..X.X.X.X.X.X.X.X.X.X.X.X.X",
".X.X.X.X.X.X.X.X.X.X.X2.Y E Q ;.q L ' ;.G. X.X.X.X.X.X.X.X.X.X.X",
".X.X.X.X.X.X.X.X.X.X.X=.C W s.a.{ W E Z g P ;.w.L./..X.X.X.X.X.X",
".X.X.X.X.X.X.X.X.X.XU.1 ] s.W F A V V V N D T c o u..X.X.X.X.X.X",
".X.X.X.X.X.X.X.X.XU.0 K R S p i M V N v v N V i 8 _..X.X.X.X.X.X",
".X.X.X.X.X.X.X.XU.1 J G V V m m N V N d a B V h K..X.X.X.X.X.X.X",
".X.X.X.X.X.X.X.X-.K F V V V V V V V V A A V V p 3..X.X.X.X.X.X.X",
".X.X.X.X.X.XU.*.[ R A V V V V V V V V V V V V n < I..X.X.X.X.X.X",
".X.X.X.X.X/.q I T m N A S V V A N V V V V V V V d , )..X.X.X.X.X",
".X.X.X.X.X>.I p.U a l l { F M k j m V A V V V V N X <..X.X.X.X.X",
".X.X.X.X.XD.<.<.} _ $.X.e H = / 7 y n N V N n N A n < /..X.X.X.X",
".X.X.X.X.X.X.X^.V.h.l.O.| @.x.B.c.4 t s s x 7 f m b u L..X.X.X.X",
".X.X.X.X.X.X.XS.O.5 5 $ % ! +.b.B.c.^ _ _ $.$.9 & z * I..X.X.X.X",
".X.X.X.X.X.X Xv.6 @ @ 3 :.,.z.k.%.c.N.A.~.9.: ^ k.Q.). X.X.X.X.X",
".X.X.X.X.X.X Xj.; O 8 8.3.r P 6.C.r.r w -.2.q ; j..X.X.X.X.X.X.X",
".X.X.X.X.X.X.XI.+ 2 y.Y.F.. . -.|.`.P   > d.8.# 0..X.X.X.X.X.X.X",
".X.X.X.X.X.X.X.Xr $ 4.y.W.e.*.P.].].R.-.w.n.` + M..X.X.X.X.X.X.X",
".X.X.X.X.X.X.X.Xi.# ) o.t.'.|.|.].].].|.T.7.~ } [..X.X.X.X.X.X.X",
".X.X.X.X.X.X.X.X.X&.- `  .t.T.`.`.`.E.m.5./ ..c.!..X.X.X.X.X.X.X",
".X.X.X.X.X.X.X.X.X/.,.( 4 / 8.d.g.f.q.( , w.Z.#.!..X.X.X.X.X.X.X",
".X.X.X.X.X.X.X.X.X.X.X}.0.,.D.D.H.F.D.0.0..X[.Z.{..X.X.X.X.X.X.X",
".X.X.X.X.X.X.X.X.X.X.X XG.P.J.i.G.D.G.P.J. X.X.X.X.X.X.X.X.X.X.X",
".X.X.X.X.X.X.X.X.X.X.X/.J./.(.(._._./.(.L./..X.X.X.X.X.X.X.X.X.X",
".X.X.X.X.X.X.X.X.X.X XJ.R._.}.}.)._.}.}./.J. X.X.X.X.X.X.X.X.X.X",
".X.X.X.X.X.X.X.X.X.X/.L._.}.}.}.}.}.}.}.}.L.U..X.X.X.X.X.X.X.X.X",
".X.X.X.X.X.X.X.X.X XL.(.}.}.}.}.).}.}.}.}./.G..X.X.X.X.X.X.X.X.X",
".X.X.X.X.X.X.X.X.X}.L.}.}.}.}.}.}.}.}.}.}.}.G.}..X.X.X.X.X.X.X.X",
".X.X.X.X.X.X.X.X.X}.L.}.}.}.}.}.).}.}.}.}.}.L._..X.X.X.X.X.X.X.X",
".X.X.X.X.X.X.X.X.X}.G.L.L.L.L.L.L.L.L.L.L.L.G.}..X.X.X.X.X.X.X.X",
".X.X.X.X.X.X.X.X.X.X}.}.}.}.}.}.}.}.}.}.}.}.}..X.X.X.X.X.X.X.X.X",
".X.X.X.X.X.X.X.X.X.X.X.X.X.X.X.X.X.X.X.X.X.X.X.X.X.X.X.X.X.X.X.X"
};
