/* XPM */
static char *_c8237de0a224ec3a6bef90c130929f73jSK4Es6AFZOSoBh_0[] = {
/* columns rows colors chars-per-pixel */
"32 32 174 2 ",
"   c #101010",
".  c #261428",
"X  c #381E33",
"o  c #1D233D",
"O  c #202020",
"+  c #3C282F",
"@  c #212338",
"#  c #362737",
"$  c #33333D",
"%  c #4A1429",
"&  c #66162A",
"*  c #761028",
"=  c #7E1E31",
"-  c #542C33",
";  c #622B3C",
":  c #1E2643",
">  c #222845",
",  c #2E3249",
"<  c #36384C",
"1  c #262F51",
"2  c #2A3356",
"3  c #2A3458",
"4  c #2F385F",
"5  c #353C5C",
"6  c #383E5F",
"7  c #343D60",
"8  c #792D41",
"9  c #46474C",
"0  c #44475A",
"q  c #534E5F",
"w  c #704049",
"e  c #6E4E54",
"r  c #655A5D",
"t  c #73525A",
"y  c #71585C",
"u  c #414661",
"i  c #4E536F",
"p  c #5E5B6F",
"a  c #4A4F71",
"s  c #4B5376",
"d  c #6B5C67",
"f  c #6C6A6D",
"g  c #756669",
"h  c #626472",
"j  c #706771",
"k  c #75767A",
"l  c #911229",
"z  c #9E142E",
"x  c #801932",
"c  c #A91733",
"v  c #AC1834",
"b  c #BE1637",
"n  c #812538",
"m  c #832D3D",
"M  c #982138",
"N  c #C41537",
"B  c #D0153A",
"V  c #D61A3E",
"C  c #E7163F",
"Z  c #8F2E41",
"A  c #962E41",
"S  c #B0354D",
"D  c #DC1D42",
"F  c #E51C44",
"G  c #EB1A43",
"H  c #F31D47",
"J  c #F51E48",
"K  c #FE1F4B",
"L  c #DF284C",
"P  c #D93253",
"I  c #FE204C",
"U  c #EF2A51",
"Y  c #FE2550",
"T  c #FE2E56",
"R  c #FE325A",
"E  c #FC3C62",
"W  c #B0495E",
"Q  c #AE5D6D",
"!  c #B05164",
"~  c #936B74",
"^  c #85797B",
"/  c #AC6D7A",
"(  c #BC6274",
")  c #A7707C",
"_  c #DE4A68",
"`  c #CA5A70",
"'  c #D65E77",
"]  c #E34967",
"[  c #F94669",
"{  c #ED5472",
"}  c #F05070",
"|  c #FA5979",
" . c #E2667F",
".. c #85807F",
"X. c #676C8C",
"o. c #6F7282",
"O. c #73708F",
"+. c #6B739E",
"@. c #777698",
"#. c #737BA9",
"$. c #9A7D82",
"%. c #C07887",
"&. c #EC6983",
"*. c #E07087",
"=. c #7D8392",
"-. c #848487",
";. c #8C898A",
":. c #9B8086",
">. c #908789",
",. c #968B8D",
"<. c #8B8490",
"1. c #8A8996",
"2. c #8E8C99",
"3. c #9F8E91",
"4. c #9B9293",
"5. c #9F9897",
"6. c #94929A",
"7. c #9A9A9D",
"8. c #A3878D",
"9. c #A69799",
"0. c #8182AB",
"q. c #9187A3",
"w. c #9295A3",
"e. c #8388B1",
"r. c #958FB1",
"t. c #B49CA4",
"y. c #A6A2A6",
"u. c #ACA5A4",
"i. c #ACACAF",
"p. c #B9A5AA",
"a. c #AFAFB0",
"s. c #B3AFB2",
"d. c #BAA6B8",
"f. c #B4B3B6",
"g. c #BEBBBC",
"h. c #D88899",
"j. c #F4869D",
"k. c #C3B1BF",
"l. c #C7BFBE",
"z. c #D6B7B7",
"x. c #E4BCBC",
"c. c #B7ACC0",
"v. c #BCBFCA",
"b. c #CABCC9",
"n. c #D7BFC6",
"m. c #BFC0C0",
"M. c #C4C2C2",
"N. c #C9C5C4",
"B. c #CCCBCA",
"V. c #D4C5C4",
"C. c #D1CFCF",
"Z. c #C8CAD3",
"A. c #D5D4D4",
"S. c #DBD6D5",
"D. c #D8D7D8",
"F. c #D6DAD9",
"G. c #DADADA",
"H. c #E9CDCD",
"J. c #E3D5D6",
"K. c #EED6D6",
"L. c #E1DEDE",
"P. c #EAE1DF",
"I. c #E4E4E3",
"U. c #EBE5E5",
"Y. c #E8E7E8",
"T. c #E7E8E8",
"R. c gray93",
"E. c #F4E5E4",
"W. c #F9ECEA",
"Q. c #FBF1EF",
"!. c #EFF0F0",
"~. c #F3F3F3",
"^. c #FDF3F1",
"/. c white",
/* pixels */
"/./././././././././././.I.T././././././././././././././././././.",
"/././././././././././.L.8.:.g./.T.A.T./././././././././././././.",
"/././././././././././.4.' } ( ,.g ~ :.3.A./././././././././././.",
"/././././././././././.$.L | j.h. .| { P m ^ ,.f.D.T././././././.",
"/./././././././././.G.y *.j.| R Y K K K H P _ S - m././././././.",
"/././././././././.G.d ! [ U c c J K K D D K K z g ~././././././.",
"/./././././././.G.r W E K K F F K K J v v J K A F./././././././.",
"/./././././././.>.Q R K K K K K K K K K I K K M a./././././././.",
"/./././././.G.>.%.[ I K K K K K K K K K K K K V e I././././././.",
"/././././.I.g / ] G K I Y K K K K K K K K K K K c r ~./././././.",
"/././././.,.) h.` v * n &.T J V B H K K K K K K H & s./././././.",
"/././././.g.4.4.r ^ 0 $ t 8 & X ; z G K K K F K I V t !././././.",
"/././././././.G.-.v.Z.w.2 1 1 7 =.+ l N b x & N G C n G././././.",
"/././././././.D.h s s 5 3 4 4 4 6 j # . # > o % = Z w I././././.",
"/././././././.D.< 4 2 q <.2.2.1.6.S.s.1.y.p 2 : k I.I.~././././.",
"/././././././.D., , d t.9...;.l.^.N.;.-.5.9.d @ -./././././././.",
"/././././././.G.$ a d.H.g.O O 4.^.P.f   9 z.t.< a./././././././.",
"/./././././././.f 6 e.c.U.u.^ J.Q.^.S.^ u.b.@.9 I./././././././.",
"/./././././././.a.< +.e.k.W.^.Q.Q.Q.^.^.J.r.X.i././././././././.",
"/././././././././.k u #.0.d.K.E.E.E.E.n.q.X.f./././././././././.",
"/././././././././.G.;.o.i O.t.z.x.z.p.@.0 i././././././././././.",
"/././././././././././.R.7.6.g.N.V.V.M.7.y./././././././././././.",
"/././././././././././.~.B.G.B.g.N.N.B.D.A.~././././././././././.",
"/././././././././././.I.C.I.I.I.R.R.I.Y.C.I././././././././././.",
"/./././././././././.~.C.L.R.~.~.I.!.~.~.I.A.~./././././././././.",
"/./././././././././.I.A.R.~.~.~.~.~.~.~.~.B.I./././././././././.",
"/././././././././.~.A.Y.~.~.~.~.I.~.~.~.~.I.A./././././././././.",
"/././././././././.~.D.~.~.~.~.~.~.~.~.~.~.R.B.~././././././././.",
"/././././././././.~.D.~.~.~.~.~.Y.~.~.~.~.~.D.~././././././././.",
"/././././././././.~.B.D.D.D.D.D.D.D.D.D.D.D.B.~././././././././.",
"/./././././././././.R.R.R.R.R.R.R.R.R.R.R.R.~./././././././././.",
"/./././././././././././././././././././././././././././././././."
};
