/* XPM */
static char *_c8237de0a224ec3a6bef90c130929f73jSK4Es6AFZOSoBh_11[] = {
/* columns rows colors chars-per-pixel */
"32 32 178 2 ",
"   c #292726",
".  c #343231",
"X  c #6C0C1E",
"o  c #50192B",
"O  c #691728",
"+  c #791024",
"@  c #412A3A",
"#  c #562A37",
"$  c #5D373F",
"%  c #632231",
"&  c #78243C",
"*  c #2F324E",
"=  c #33394E",
"-  c #2A3458",
";  c #343C5E",
":  c #463D54",
">  c #3E4349",
",  c #35455F",
"<  c #3F4E6C",
"1  c #384B70",
"2  c #3D5371",
"3  c #3C597A",
"4  c #464659",
"5  c #565353",
"6  c #654248",
"7  c #6E4C52",
"8  c #655A5C",
"9  c #72595E",
"0  c #414560",
"q  c #4D536E",
"w  c #555162",
"e  c #494F70",
"r  c #40567E",
"t  c #545E7B",
"y  c #6B5A6A",
"u  c #715E6B",
"i  c #566578",
"p  c #696569",
"a  c #736164",
"s  c #76696C",
"d  c #95112A",
"f  c #9C142E",
"g  c #8F1C36",
"h  c #A1142F",
"j  c #A61632",
"k  c #B81635",
"l  c #8A233D",
"z  c #832D3E",
"x  c #9A2137",
"c  c #C21A3A",
"v  c #D9183E",
"b  c #972D40",
"n  c #AF364E",
"m  c #D71E43",
"M  c #DD1B40",
"N  c #EB1C44",
"B  c #F31D47",
"V  c #F21E48",
"C  c #FF1F4B",
"Z  c #DE284B",
"A  c #DB3354",
"S  c #FF204C",
"D  c #FF2852",
"F  c #ED385C",
"G  c #FE325A",
"H  c #FB3E63",
"J  c #AE4A5E",
"K  c #AD5667",
"L  c #926C74",
"P  c #8D7A7E",
"I  c #B0606F",
"U  c #AC6674",
"Y  c #BB6275",
"T  c #DD4B68",
"R  c #FA466A",
"E  c #FD4F72",
"W  c #ED5372",
"Q  c #FA5E7D",
"!  c #D46077",
"~  c #4D698C",
"^  c #576687",
"/  c #5B7289",
"(  c #527799",
")  c #72728A",
"_  c #6A729D",
"`  c #777799",
"'  c #737BA8",
"]  c #9C7E84",
"[  c #DF6F85",
"{  c #C37283",
"}  c #E06780",
"|  c #778A9E",
" . c #6788A8",
".. c #638CB3",
"X. c #6288B6",
"o. c #6291BA",
"O. c #7FA4C7",
"+. c #71A3D0",
"@. c #7EB3E2",
"#. c #88888A",
"$. c #9B8287",
"%. c #948688",
"&. c #998E90",
"*. c #979396",
"=. c #A2888E",
"-. c #A19194",
";. c #8082AB",
":. c #9187A3",
">. c #8F92A7",
",. c #9C9CA2",
"<. c #8287B1",
"1. c #9790B1",
"2. c #B59AA5",
"3. c #A5A5A5",
"4. c #ADABAC",
"5. c #B4ABAD",
"6. c #B9A6B8",
"7. c #A9B0B8",
"8. c #B9B2B6",
"9. c #BEBDBD",
"0. c #DD8497",
"q. c #E6889B",
"w. c #F4859C",
"e. c #C1AEB7",
"r. c #D5B5B6",
"t. c #E5BBBB",
"y. c #96B8D7",
"u. c #A0ABC0",
"i. c #B6ABC0",
"p. c #B0BCC9",
"a. c #86B7E4",
"s. c #83BAEC",
"d. c #8ABEEE",
"f. c #86BDF1",
"g. c #D6BFC6",
"h. c #8AC3F7",
"j. c #8EC6FB",
"k. c #8FC8FD",
"l. c #94C5F2",
"z. c #92CBFE",
"x. c #A3C6E5",
"c. c #ABCEED",
"v. c #B3CEE8",
"b. c #BED1E2",
"n. c #A2D3FE",
"m. c #B7DAF9",
"M. c #BEE0FE",
"N. c #C5C3C3",
"B. c #C7C9C9",
"V. c #CBCACA",
"C. c #D3C4C5",
"Z. c #D0CDCD",
"A. c #D3D0CF",
"S. c #D5D5D5",
"D. c #DFD6D4",
"F. c #D7D8D9",
"G. c #DBDCDB",
"H. c #EED4D5",
"J. c #E5DADA",
"K. c #E5DCDB",
"L. c #C0DFFA",
"P. c #DCE0E3",
"I. c #C2E2FF",
"U. c #C8E4FC",
"Y. c #D4E4F2",
"T. c #D6E9F9",
"R. c #D8E9F8",
"E. c #E4E3E3",
"W. c #E9E5E4",
"Q. c #ECEBEC",
"!. c #F5E4E3",
"~. c #F4EFED",
"^. c #F9F1EF",
"/. c #ECF2F6",
"(. c #F3F3F3",
"). c #F3F7F9",
"_. c #F5FAFE",
"`. c white",
/* pixels */
"`.`.`.`.`.`.`.`.`.`.`.`.W.Q.`.`.`.`.`.`.`.`.`.`.`.`.`.`.`.`.`.`.",
"`.`.`.`.`.`.`.`.`.`.`.E.=.$.9.`.Q.S.Q.`.`.`.`.`.`.`.`.`.`.`.`.`.",
"`.`.`.`.`.`.`.`.`.`.`.*.! W Y &.s L $.-.S._.`.`.`.`.`.`.`.`.`.`.",
"`.`.`.`.`.`.`.`.`.`.`.] Z E w.0.} Q W A z P &.8.F.Q.`.`.`.`.`.`.",
"`.`.`.`.`.`.`.`.`.`.G.9 [ w.Q G D C C C B A T n # 9.`.`.`.`.`.`.",
"`.`.`.`.`.`.`.`.`.G.p K R D k k C C C N N C C h a (.`.`.`.`.`.`.",
"`.`.`.`.`.`.`.`.G.8 J H C C k c S C S f f S C b F.`.`.`.`.`.`.`.",
"`.`.`.`.`.`.`.`.%.K G C C C C S C C C B B C C x 4.`.`.`.`.`.`.`.",
"`.`.`.`.`.`.G.%.{ R S C C C C C C C C C C C C v 7 E.`.`.`.`.`.`.",
"`.`.`.`.`.E.s U H C S S C C C C C C C C C C C S j 8 (.`.`.`.`.`.",
"`.`.`.`.`.%.I q.F B S S C C C C C C C C C C C C V O 4.`.`.`.`.`.",
"`.`.`.`.`.4.$ % k k v B B M f l m B C S C C C C S M 6 B.`.`.`.`.",
"`.`.`.`.`.`.P.| t : o & & @ ^ ..: d N N v j l g f + $ S.`.`.`.`.",
"`.`.`.`.`.`.`.M.s.~ 1 3 o.@.z.h.+.4 O X # ^ ..( i #.F.`.`.`.`.`.",
"`.`.`.`.`.`._.n.X.; - w u.a.f.z.z.d...~ +.+.r o.n._.`.`.`.`.`.`.",
"`.`.`.`.`.`.T.d.2 * y e.K.p.O.s.z.z.z.z.a.>.u < y._.`.`.`.`.`.`.",
"`.`.`.`.`.`.I.s., e 6.H.5.  >  .f.j.j.s./ r.2.= 7.`.`.`.`.`.`.`.",
"`.`.`.`.`.`.U.j.2 ; <.i.J.5 . 4.v.a.y./ p 8.` = b.`.`.`.`.`.`.`.",
"`.`.`.`.`.`./.l.( * _ <.e.J.D.^.^.Q.Q.D.C.1.^ ..L.`.`.`.`.`.`.`.",
"`.`.`.`.`.`.`.R.x.i 0 ' ;.6.H.!.!.!.!.g.:.^ ..z.U._.`.`.`.`.`.`.",
"`.`.`.`.`.`.`.`._.F.*.) q ) 2.r.t.r.5.` 4  .f.z.m._.`.`.`.`.`.`.",
"`.`.`.`.`.`.`.`.`.`.`.Q.3.*.9.N.C.C.N.,.3.Y.d.k.m._.`.`.`.`.`.`.",
"`.`.`.`.`.`.`.`.`.`.`.).V.G.Z.9.V.N.V.D.S.).x.h.U.`.`.`.`.`.`.`.",
"`.`.`.`.`.`.`.`.`.`.`.E.Z.E.W.W.Q.Q.E.W.A.W.).c.R.`.`.`.`.`.`.`.",
"`.`.`.`.`.`.`.`.`.`.).Z.K.Q.(.(.W.(.(.(.E.S.).c.U.`.`.`.`.`.`.`.",
"`.`.`.`.`.`.`.`.`.`.E.S.~.(.(.(.(.(.(.(.(.V.E.v.m.`.`.`.`.`.`.`.",
"`.`.`.`.`.`.`.`.`.).S.Q.(.(.(.(.W.(.(.(.(.E.S.Y.Y.`.`.`.`.`.`.`.",
"`.`.`.`.`.`.`.`.`.(.S.(.(.(.(.(.(.(.(.(.(.Q.V.(.`.`.`.`.`.`.`.`.",
"`.`.`.`.`.`.`.`.`.(.S.(.(.(.(.(.Q.(.(.(.(.(.S.(.`.`.`.`.`.`.`.`.",
"`.`.`.`.`.`.`.`.`.(.V.S.S.S.S.S.S.S.S.S.S.S.V.(.`.`.`.`.`.`.`.`.",
"`.`.`.`.`.`.`.`.`.`.(.(.(.(.(.(.(.(.(.(.(.(.(.`.`.`.`.`.`.`.`.`.",
"`.`.`.`.`.`.`.`.`.`.`.`.`.`.`.`.`.`.`.`.`.`.`.`.`.`.`.`.`.`.`.`."
};
