/* XPM */
static char *_c8237de0a224ec3a6bef90c130929f73jSK4Es6AFZOSoBh_1[] = {
/* columns rows colors chars-per-pixel */
"32 32 180 2 ",
"   c #050606",
".  c gray11",
"X  c #222121",
"o  c #24263C",
"O  c #6B1928",
"+  c #562D35",
"@  c #2E324D",
"#  c #363A4A",
"$  c #2C3756",
"%  c #353B54",
"&  c #31395B",
"*  c #303B61",
"=  c #7E2F49",
"-  c #3B4059",
";  c #38496F",
":  c #3E4F77",
">  c #3E5172",
",  c #484848",
"<  c #4A4A5B",
"1  c #71414A",
"2  c #6E4B52",
"3  c #7C415D",
"4  c #63585A",
"5  c #735057",
"6  c #464A66",
"7  c #4E536D",
"8  c #4A5275",
"9  c #435A7F",
"0  c #6D4864",
"q  c #6B5A6A",
"w  c #715D61",
"e  c #725F6C",
"r  c #6D6567",
"t  c #786B6E",
"y  c #7A7273",
"u  c #7B797A",
"i  c #890F27",
"p  c #98122C",
"a  c #A4132F",
"s  c #A71732",
"d  c #AB1934",
"f  c #BF1435",
"g  c #B51A39",
"h  c #84283C",
"j  c #9D2038",
"k  c #C6173A",
"l  c #D3163B",
"z  c #D91A3F",
"x  c #E7173F",
"c  c #822940",
"v  c #8D2F43",
"b  c #9A2B40",
"n  c #92324F",
"m  c #B13850",
"M  c #DE1D42",
"N  c #E31C43",
"B  c #EA1942",
"V  c #F41C47",
"C  c #F31F48",
"Z  c #FE1F4B",
"A  c #D92649",
"S  c #DA3354",
"D  c #FE204C",
"F  c #FE2651",
"G  c #F72E55",
"H  c #FD345C",
"J  c #FB3F64",
"K  c #86455A",
"L  c #A5475A",
"P  c #A64F61",
"I  c #A35B6A",
"U  c #886A76",
"Y  c #877B7D",
"T  c #A36B77",
"R  c #BC6173",
"E  c #DC4C69",
"W  c #CA5F73",
"Q  c #E34F6C",
"!  c #F94A6D",
"~  c #EE5674",
"^  c #F85E7D",
"/  c #CE6076",
"(  c #5B678C",
")  c #5E7290",
"_  c #686988",
"`  c #767886",
"'  c #666E98",
"]  c #6A7895",
"[  c #687798",
"{  c #797899",
"}  c #7179A5",
"|  c #BB7A87",
" . c #DC6980",
".. c #E66880",
"X. c #F96381",
"o. c #6A81A0",
"O. c #6186B0",
"+. c #7E84B1",
"@. c #6990BD",
"#. c #7594B3",
"$. c #74A3CF",
"%. c #7AA9D6",
"&. c #868384",
"*. c #898483",
"=. c #9B8287",
"-. c #938D8E",
";. c #878690",
":. c #958E96",
">. c #959294",
",. c #9A9293",
"<. c #979398",
"1. c #A0888D",
"2. c #A48D92",
"3. c #A69397",
"4. c #A39B9C",
"5. c #8087AE",
"6. c #9086A2",
"7. c #9A9AA2",
"8. c #899EBD",
"9. c #9690B1",
"0. c #B49BA4",
"q. c #9BABBF",
"w. c #A5A5A5",
"e. c #AFA8A7",
"r. c #A7AAAD",
"t. c #ADADAE",
"y. c #B7AAAB",
"u. c #B9A6B7",
"i. c #B1A5BB",
"p. c #B9B5B7",
"a. c #BDBCBC",
"s. c #D78899",
"d. c #F4839A",
"f. c #F789A0",
"g. c #D5B6B6",
"h. c #E5BBBB",
"j. c #C8C0BF",
"k. c #82A8C9",
"l. c #9DB0C9",
"z. c #83AFD7",
"x. c #8DB1D5",
"c. c #9CB6D3",
"v. c #84B8E6",
"b. c #88BEF1",
"n. c #C5BDC5",
"m. c #D5BDC4",
"M. c #9AC2E7",
"N. c #91CBFF",
"B. c #BACDE2",
"V. c #BAD6ED",
"C. c #A2D2FD",
"Z. c #AFD7FB",
"A. c #C5C3C4",
"S. c #CDC3C3",
"D. c #CCCBCB",
"F. c #D3CACA",
"G. c gray83",
"H. c #DBD7D7",
"J. c #DCDBDB",
"K. c #E8CACB",
"L. c #E9D2D5",
"P. c #E2DBDA",
"I. c #C2D2E0",
"U. c #D6DFE3",
"Y. c #DBE0E4",
"T. c #CBE3FC",
"R. c #D1E2F6",
"E. c #DFF1FF",
"W. c #E4E4E3",
"Q. c #EAE5E5",
"!. c #ECECEC",
"~. c #F3E3E3",
"^. c #F3ECEC",
"/. c #FAF1EF",
"(. c #F1EFF3",
"). c #ECF1F5",
"_. c #F3F3F3",
"`. c #FDF3F1",
"'. c #F4FAFF",
"]. c white",
/* pixels */
"].].].].].].].].].].].].!.!.].].].].].].].].].].].].].].].].].].",
"].].].].].].].].].].].Q.2.=.a.].!.H.!.].].].].].].].].].].].].].",
"].].].].].].].].].].].4./ ~ R ,.t U =.3.G.].].].].].].].].].].].",
"].].].].].].].].].].].1.A ! d.s. .^ ~ S h Y ,.p.J.!.].].].].].].",
"].].].].].].].].].].W.w  .f.X.H F Z Z Z V S E m + a.].].].].].].",
"].].].].].].].].].Q.r P ! G s s V Z Z M M Z Z a w _.].].].].].].",
"].].].].].].].].W.r L J Z Z N N Z Z C d d C Z b G.].].].].].].].",
"].].].].].].].].>.I H Z Z Z Z Z Z Z Z D D Z Z j t.].].].].].].].",
"].].].].].].W.-.| ! D Z Z Z Z Z Z Z Z Z Z Z Z z 2 W.].].].].].].",
"].].].].].Q.y T Q B Z D F Z Z Z Z Z Z Z Z Z Z D s 4 (.].].].].].",
"].].].].].4.T s.W g h c ..G V l l V Z Z Z Z Z Z C O t.].].].].].",
"].].].].].A.,.<.] [ z.#.U K = _ 0 p B Z Z Z N Z D M 5 !.].].].].",
"].].].].].].].E.C.x.B.l.O.$.v.N.v.6 i f f n 3 k B x h J.].].].].",
"].].].].].].].V.o.8 8 & * : @.b.N.v.) _ ' %.%.0 c v 1 W.].].].].",
"].].].].].].'.M.> & $ < ;.:.7.c.C.R.T.T.T.8.; 9 k.U.Q.'.].].].].",
"].].].].].].'.M.$ @ q 0.4.Y *.p.(.S.*.u >.3.e o ;.].].].].].].].",
"].].].].].].].Y.# 6 i.K.j.X . -.`.Q.y   , g.0.# r.].].].].].].].",
"].].].].].].].].u & 5.i.Q.y.*.H././.P.*.e.n.{ # I.].].].].].].].",
"].].].].].].].].a.% ' +.u.^.`.`././.`.`.L.9.( #.).].].].].].].].",
"].].].].].].].].].&.- } +.u.L.~.~.~.~.m.6._ q.Z.'.].].].].].].].",
"].].].].].].].].].Q.>.` 7 _ 0.g.h.g.y.{ < t.].'.].].].].].].].].",
"].].].].].].].].].].]._.w.<.n.A.F.S.A.7.w.].].].].].].].].].].].",
"].].].].].].].].].].].'.D.H.F.a.D.A.D.H.G.'.].].].].].].].].].].",
"].].].].].].].].].].].Q.D.W.Q.Q.!.!.W.Q.G.W.].].].].].].].].].].",
"].].].].].].].].].].'.G.P.!._._.!.(._._.W.G.'.].].].].].].].].].",
"].].].].].].].].].].Q.G.!._._._._._._._._.D.W.].].].].].].].].].",
"].].].].].].].].].'.G.Q._._._._.!._._._._.Q.G.].].].].].].].].].",
"].].].].].].].].]._.G._._._._._._._._._._.!.D._.].].].].].].].].",
"].].].].].].].].]._.G._._._._._.!._._._._._.G._.].].].].].].].].",
"].].].].].].].].]._.D.G.G.G.G.G.G.G.G.G.G.G.D._.].].].].].].].].",
"].].].].].].].].].]._._._._._._._._._._._._._.].].].].].].].].].",
"].].].].].].].].].].].].].].].].].].].].].].].].].].].].].].].]."
};
