/* XPM */
static char *_c8237de0a224ec3a6bef90c130929f73jSK4Es6AFZOSoBh_4[] = {
/* columns rows colors chars-per-pixel */
"32 32 172 2 ",
"   c #301F37",
".  c #3B2533",
"X  c #6C1627",
"o  c #7F172E",
"O  c #592E36",
"+  c #66353E",
"@  c #2C314D",
"#  c #343743",
"$  c #333A4E",
"%  c #2A3357",
"&  c #383B54",
"*  c #323D64",
"=  c #703B44",
"-  c #37405C",
";  c #3C4D6D",
":  c #3E547A",
">  c #4A475C",
",  c #6F484F",
"<  c #714B52",
"1  c #665357",
"2  c #43496A",
"3  c #4E536D",
"4  c #6B5968",
"5  c #71516E",
"6  c #5E607C",
"7  c #6F6769",
"8  c #726669",
"9  c #7B7073",
"0  c #78787C",
"q  c #8A1028",
"w  c #851A32",
"e  c #AB1532",
"r  c #A41B36",
"t  c #AC1835",
"y  c #B41130",
"u  c #BC1232",
"i  c #B71E3E",
"p  c #862335",
"a  c #80233C",
"s  c #9B243B",
"d  c #C11234",
"f  c #C91739",
"g  c #DC153D",
"h  c #892940",
"j  c #853242",
"k  c #B13D54",
"l  c #DE1B40",
"z  c #EA1741",
"x  c #E11D43",
"c  c #EB1A43",
"v  c #F21C46",
"b  c #F31F48",
"n  c #FE1F4B",
"m  c #D82649",
"M  c #D63454",
"N  c #FF204C",
"B  c #F92B54",
"V  c #FC345C",
"C  c #FF3960",
"Z  c #A14B5C",
"A  c #AD5D6D",
"S  c #8A6970",
"D  c #9E6873",
"F  c #B96273",
"G  c #D74E69",
"H  c #F9486C",
"J  c #E1506D",
"K  c #EA5976",
"L  c #CC6378",
"P  c #D8687F",
"I  c #F5617E",
"U  c #5D6687",
"Y  c #5B708E",
"T  c #4F6E99",
"R  c #516B96",
"E  c #646786",
"W  c #696B8A",
"Q  c #787B89",
"!  c #676E98",
"~  c #737998",
"^  c #587EA5",
"/  c #767AA3",
"(  c #8E7F82",
")  c #B97B88",
"_  c #D86980",
"`  c #F96785",
"'  c #5C82AD",
"]  c #658BAF",
"[  c #7B87AA",
"{  c #6083B0",
"}  c #7F84B1",
"|  c #6E9ECA",
" . c #7BADD9",
".. c #77AEE0",
"X. c #7CB1E2",
"o. c #858289",
"O. c #9B8489",
"+. c #929295",
"@. c #9C9495",
"#. c #A18B8F",
"$. c #A48F94",
"%. c #A5999C",
"&. c #8187AF",
"*. c #9389A4",
"=. c #9195A2",
"-. c #9992B2",
";. c #A29FA2",
":. c #B79BA6",
">. c #A6A4A4",
",. c #A8A5A5",
"<. c #AAA9AA",
"1. c #BAA5A9",
"2. c #A0A8B0",
"3. c #B3A2B5",
"4. c #B8ABBE",
"5. c #B4B4B4",
"6. c #BBBABB",
"7. c #D78597",
"8. c #F48BA1",
"9. c #C8B7B8",
"0. c #DEB8B8",
"q. c #E5BCBC",
"w. c #8BA3C2",
"e. c #87B3DA",
"r. c #97B7D8",
"t. c #86BBEB",
"y. c #95BCE1",
"u. c #86BEF2",
"i. c #C6BEC4",
"p. c #D7BFC5",
"a. c #B6CADC",
"s. c #8DC7FB",
"d. c #8EC8FC",
"f. c #91CBFF",
"g. c #AECDE8",
"h. c #B6CFE8",
"j. c #A8D4FC",
"k. c #B5D9FA",
"l. c #C5C3C4",
"z. c #CDC4C3",
"x. c #CBCBCA",
"c. c #D5C7C6",
"v. c #D5CECD",
"b. c gray83",
"n. c #DCD3D3",
"m. c #DCD8D7",
"M. c #D4DBDF",
"N. c #DDDDDC",
"B. c #E2CACA",
"V. c #ECCFD0",
"C. c #E9D3D5",
"Z. c #E4DEDD",
"A. c #E5E0DF",
"S. c #D0DAE8",
"D. c #C6DFF9",
"F. c #E0DEE2",
"G. c #C6E4FE",
"H. c #DEEAF5",
"J. c #E4E4E4",
"K. c #E8E6E5",
"L. c #E7E8E7",
"P. c #E7E8E8",
"I. c #ECECEC",
"U. c #F4E4E3",
"Y. c #F7E9E7",
"T. c #F6EDED",
"R. c #FBF1EF",
"E. c #EEEDF2",
"W. c #F3F3F3",
"Q. c #FDF3F1",
"!. c #F5FAFE",
"~. c white",
/* pixels */
"~.~.~.~.~.~.~.~.~.~.~.~.I.I.~.~.~.~.~.~.~.~.~.~.~.~.~.~.~.~.~.~.",
"~.~.~.~.~.~.~.~.~.~.~.P.$.O.9.~.W.N.I.~.~.~.~.~.~.~.~.~.~.~.~.~.",
"~.~.~.~.~.~.~.~.~.~.~.;.L K F @.9 S O.%.m.~.~.~.~.~.~.~.~.~.~.~.",
"~.~.~.~.~.~.~.~.~.~.~.#.m H 8.7._ I K M j ( @.6.J.I.~.~.~.~.~.~.",
"~.~.~.~.~.~.~.~.~.~.P.8 P 8.` C B n n n v M G k O 5.~.~.~.~.~.~.",
"~.~.~.~.~.~.~.~.~.L.7 Z H B t e v n n x x n n e 1 I.~.~.~.~.~.~.",
"~.~.~.~.~.~.~.~.L.7 Z H n n x l n n b t t b n s x.~.~.~.~.~.~.~.",
"~.~.~.~.~.~.~.~.@.A V n n n n n n n n N N n n r <.~.~.~.~.~.~.~.",
"~.~.~.~.~.~.L.@.) H N n n n n n n n n n n n n l , J.~.~.~.~.~.~.",
"~.~.~.~.~.P.9 D J c n n N n n n n n n n n n n N t 1 I.~.~.~.~.~.",
"~.~.~.~.~.@.A 8.M g g c n n n n c v n N n n n n b X ,.~.~.~.~.~.",
"~.~.~.~.~.5.+ s u u y o a h w y u d c n n n v n N l < I.~.~.~.~.",
"~.~.~.~.~.~.b.Q E >   - ^ | ] U 6 . q d f l i f c z p b.~.~.~.~.",
"~.~.~.~.~.~.~.G.s.R * % * T X.d.f. .Y E E E ! 5 a h = N.~.~.~.~.",
"~.~.~.~.~.~.!.j.{ * % > o.=.r.X.u.s.d.j.D.w.: ' e.M.J.!.~.~.~.~.",
"~.~.~.~.~.~.!.y.; @ 4 1.Q.Q.T.S.r.e.h.E.Q.1.4 ; r.!.~.~.~.~.~.~.",
"~.~.~.~.~.~.~.M.# 2 3.V.z.@.@.z.T.F.>.@.>.B.:.& 2.~.~.~.~.~.~.~.",
"~.~.~.~.~.~.~.~.0 & &.4.n.v.v.Z.R.T.n.v.n.i./ $ a.~.~.~.~.~.~.~.",
"~.~.~.~.~.~.~.~.6.$ ! } 4.Y.Q.Q.R.R.Q.Q.C.-.U ^ k.~.~.~.~.~.~.~.",
"~.~.~.~.~.~.~.~.~.o.- / } 3.C.U.U.U.U.p.*.W [ t.G.!.~.~.~.~.~.~.",
"~.~.~.~.~.~.~.~.~.L.+.Q 3 W :.9.q.0.1.~ > <.h...k.!.~.~.~.~.~.~.",
"~.~.~.~.~.~.~.~.~.~.~.W.,.+.i.l.c.z.l.;.;.~.H.g.k.!.~.~.~.~.~.~.",
"~.~.~.~.~.~.~.~.~.~.~.!.x.m.v.6.x.l.x.m.b.!.~.!.!.~.~.~.~.~.~.~.",
"~.~.~.~.~.~.~.~.~.~.~.L.x.A.K.K.I.I.J.K.b.J.~.~.~.~.~.~.~.~.~.~.",
"~.~.~.~.~.~.~.~.~.~.!.b.Z.I.W.W.P.T.W.W.J.v.!.~.~.~.~.~.~.~.~.~.",
"~.~.~.~.~.~.~.~.~.~.L.b.I.W.W.W.W.W.W.W.W.b.N.~.~.~.~.~.~.~.~.~.",
"~.~.~.~.~.~.~.~.~.!.b.K.W.W.W.W.P.I.W.W.W.L.b.~.~.~.~.~.~.~.~.~.",
"~.~.~.~.~.~.~.~.~.W.b.W.W.W.W.W.W.W.W.W.W.W.x.W.~.~.~.~.~.~.~.~.",
"~.~.~.~.~.~.~.~.~.W.b.W.W.W.W.W.P.I.W.W.W.W.b.I.~.~.~.~.~.~.~.~.",
"~.~.~.~.~.~.~.~.~.W.x.b.b.b.b.b.b.b.b.b.b.b.x.W.~.~.~.~.~.~.~.~.",
"~.~.~.~.~.~.~.~.~.~.W.W.W.W.W.W.W.W.W.W.W.W.W.~.~.~.~.~.~.~.~.~.",
"~.~.~.~.~.~.~.~.~.~.~.~.~.~.~.~.~.~.~.~.~.~.~.~.~.~.~.~.~.~.~.~."
};
