/* XPM */
static char *_c8237de0a224ec3a6bef90c130929f73jSK4Es6AFZOSoBh_6[] = {
/* columns rows colors chars-per-pixel */
"32 32 180 2 ",
"   c #252423",
".  c #2D2C2B",
"X  c #3D3C3C",
"o  c #7A0E22",
"O  c #6D1627",
"+  c #791F37",
"@  c #5B2D37",
"#  c #66353E",
"$  c #2C314D",
"%  c #333A4E",
"&  c #383A49",
"*  c #2B3757",
"=  c #333A58",
"-  c #323C62",
";  c #703B44",
":  c #673A53",
">  c #723E5A",
",  c #3C405A",
"<  c #3C4D6C",
"1  c #3D5279",
"2  c #4A4A5B",
"3  c #5C5A59",
"4  c #6E484F",
"5  c #704B51",
"6  c #66585A",
"7  c #474B68",
"8  c #50546F",
"9  c #42597C",
"0  c #5F5775",
"q  c #6B5968",
"w  c #735F63",
"e  c #4E617F",
"r  c #6E6668",
"t  c #6D6969",
"y  c #62607E",
"u  c #796D70",
"i  c #797477",
"p  c #96122B",
"a  c #821D36",
"s  c #AB1432",
"d  c #A01E37",
"f  c #AA1934",
"g  c #BA1637",
"h  c #8A233B",
"j  c #93233F",
"k  c #9B243B",
"l  c #CD1337",
"z  c #863041",
"x  c #B42041",
"c  c #B23B52",
"v  c #D61D41",
"b  c #DD1A40",
"n  c #E11C43",
"m  c #EC1B44",
"M  c #F21C46",
"N  c #F41F48",
"B  c #FE1F4B",
"V  c #D82649",
"C  c #D83454",
"Z  c #FF204C",
"A  c #F92A53",
"S  c #E03A5B",
"D  c #FD365D",
"F  c #A2485A",
"G  c #A34F60",
"H  c #A85C6B",
"J  c #8D6A71",
"K  c #9F6974",
"L  c #BB6173",
"P  c #DA4C69",
"I  c #F8476A",
"U  c #FB496D",
"Y  c #E0506D",
"T  c #EC5875",
"R  c #CD6177",
"E  c #F6607E",
"W  c #546888",
"Q  c #4E6E98",
"!  c #506893",
"~  c #5E799E",
"^  c #686D8C",
"/  c #757785",
"(  c #676E98",
")  c #7D7997",
"_  c #5A7FA3",
"`  c #767AA3",
"'  c #8E7E81",
"]  c #BA7A87",
"[  c #DA6980",
"{  c #FA6583",
"}  c #7A87AB",
"|  c #6189B4",
" . c #7E84B1",
".. c #6897C6",
"X. c #6D9BC6",
"o. c #6EA0CC",
"O. c #70A3CF",
"+. c #73A7D5",
"@. c #77AFE1",
"#. c #79B1E3",
"$. c #868289",
"%. c #9B8388",
"&. c #95908F",
"*. c #939093",
"=. c #9C9294",
"-. c #A0898D",
";. c #A48E93",
":. c #A4999B",
">. c #8187AE",
",. c #9489A5",
"<. c #9497A5",
"1. c #9F9FA0",
"2. c #9992B2",
"3. c #A09FA5",
"4. c #B79CA6",
"5. c #AAA7A7",
"6. c #AAA9AA",
"7. c #B5A7A9",
"8. c #BBA6AA",
"9. c #A1A9B0",
"0. c #B6A7BA",
"q. c #B6B5B5",
"w. c #BEB8B7",
"e. c #BDB4BB",
"r. c #BCBCBD",
"t. c #DA8597",
"y. c #F58299",
"u. c #F58BA1",
"i. c #C7B6B7",
"p. c #D7B8B8",
"a. c #E4BBBC",
"s. c #8DA2C1",
"d. c #9AB5CE",
"f. c #84B1DA",
"g. c #97B8D8",
"h. c #83B8E9",
"j. c #95BCE0",
"k. c #85BDF0",
"l. c #B7CADC",
"z. c #89C3F6",
"x. c #8EC6FA",
"c. c #8EC8FD",
"v. c #98C9F5",
"b. c #93CCFF",
"n. c #ADCCE9",
"m. c #A3D2FD",
"M. c #B1D7FA",
"N. c #B7DAFA",
"B. c #C5C3C4",
"V. c #CBCACA",
"C. c #D3C4C5",
"Z. c #D8C1C7",
"A. c #D1CFCF",
"S. c #CCD0CF",
"D. c #C7CCD5",
"F. c #D5D4D4",
"G. c #DED6D5",
"H. c #DCD8D7",
"J. c #D7DADC",
"K. c #DDDDDC",
"L. c #E1D7D6",
"P. c #EDD2D3",
"I. c #E4DBDB",
"U. c #E5E0DF",
"Y. c #D4DDE3",
"T. c #DFE1E1",
"R. c #C5E3FE",
"E. c #CAE0FA",
"W. c #DEEAF5",
"Q. c #E4E4E4",
"!. c #E9E5E4",
"~. c #E8E7E8",
"^. c #ECECEC",
"/. c #F4E4E3",
"(. c #F8EEEC",
"). c #FBF1EF",
"_. c #F3F3F3",
"`. c #FDF3F0",
"'. c #F5FAFE",
"]. c white",
/* pixels */
"].].].].].].].].].].].].^.^.].].].].].].].].].].].].].].].].].].",
"].].].].].].].].].].].~.;.%.i.]._.K.^.].].].].].].].].].].].].].",
"].].].].].].].].].].].:.R T L =.u J %.:.F.].].].].].].].].].].].",
"].].].].].].].].].].].-.V U y.t.[ E T C z ' =.w.K.^.].].].].].].",
"].].].].].].].].].].Q.w [ u.{ D A B B B M C P c @ q.].].].].].].",
"].].].].].].].].].Q.t G U A f s M B B n n B B s 6 ^.].].].].].].",
"].].].].].].].].Q.r F I B B n n B B N f f N B k S.].].].].].].].",
"].].].].].].].].=.H D B B B B B B B B Z Z B B d 6.].].].].].].].",
"].].].].].].Q.*.] U Z B B B B B B B B B B B B b 4 T.].].].].].].",
"].].].].].~.u K Y m B B B B B B B B B B B B B Z f 6 ^.].].].].].",
"].].].].].=.H u.S l g j x m B B m M B B B B B B N O 5.].].].].].",
"].].].].].q.# k p : 7 | ~ : o s a + h v B B n b B b 5 ^.].].].].",
"].].].].].].J./ e _ = 9 ..X.W ^ X.O.X.y z h > 0 h l h F.].].].].",
"].].].].].].].R.k.! - $ - Q #.c.b.b.b.z.+.o.+.z._ @ ; K.].].].].",
"].].].].].].'.m.| - * 2 $.<.g.h.k.x.x.M.E.s.1 | v.Y.Q.'.].].].].",
"].].].].].].'.j.< $ q 8.!.G.F.D.g.f.d.S.L.7.q < g.'.].].].].].].",
"].].].].].].].J.& 7 0.P.w.. X &.(.Q.t   3 p.4.& 9.].].].].].].].",
"].].].].].].].].i = >.0.L.3 . 5.`.`.7.. 6 e.` % l.].].].].].].].",
"].].].].].].].].r.% (  .0.I.G.(.).).(.L.C.2.W _ N.].].].].].].].",
"].].].].].].].].].$., `  .0.P././././.Z.,.^ } k.R.'.].].].].].].",
"].].].].].].].].].Q.*./ 8 ^ 4.i.a.p.8.) 2 6.n.@.M.'.].].].].].].",
"].].].].].].].].].].]._.5.*.i.B.C.C.B.3.1.].W.n.M.'.].].].].].].",
"].].].].].].].].].].].'.V.H.A.r.V.B.V.H.F.'.].'.'.].].].].].].].",
"].].].].].].].].].].].Q.V.U.~.~.^.^.Q.~.F.Q.].].].].].].].].].].",
"].].].].].].].].].].'.F.I.^._._.^.^._._.Q.A.'.].].].].].].].].].",
"].].].].].].].].].].Q.F.^._._._._._._._._.A.K.].].].].].].].].].",
"].].].].].].].].].'.F.~._._._._.^.^._._._.Q.F.].].].].].].].].].",
"].].].].].].].].]._.F._._._._._._._._._._._.V._.].].].].].].].].",
"].].].].].].].].]._.F._._._._._.^._._._._._.F._.].].].].].].].].",
"].].].].].].].].]._.V.F.F.F.F.F.F.F.F.F.F.F.V._.].].].].].].].].",
"].].].].].].].].].]._._._._._._._._._._._._._.].].].].].].].].].",
"].].].].].].].].].].].].].].].].].].].].].].].].].].].].].].].]."
};
