/* XPM */
static char *b3c53702fa634822ca828851b79296aeTZdZ2Rqfynz8TipR[] = {
/* columns rows colors chars-per-pixel */
"32 32 213 2 ",
"   c #F2E4AA",
".  c #F2E2A9",
"X  c #F2E3AA",
"o  c #F2E1A8",
"O  c #F1E0A7",
"+  c #E8CC8E",
"@  c #F3E5C6",
"#  c #F1DFA6",
"$  c #F0DCA2",
"%  c #F0D79B",
"&  c #F0DA9F",
"*  c #F0DDA3",
"=  c #F1DEA5",
"-  c #F1DDA4",
";  c #F0DBA1",
":  c #ECD5A1",
">  c #EED090",
",  c #EED191",
"<  c #EFD496",
"1  c #F3E3B0",
"2  c #F2DA92",
"3  c #EECB88",
"4  c #EFD699",
"5  c #E5C57A",
"6  c #FDFBF6",
"7  c #F1DEA4",
"8  c #EFD497",
"9  c #EFD598",
"0  c #E6C884",
"q  c #F2E4AC",
"w  c #F1DFA5",
"e  c #F0D99E",
"r  c #EED9AA",
"t  c #F0DAA0",
"y  c #EFD395",
"u  c #F9F2E3",
"i  c #EAD097",
"p  c #F2E4AD",
"a  c #E4C376",
"s  c #F1E1A7",
"d  c #F2DC98",
"f  c #F0D99D",
"g  c #EDCB88",
"h  c #F0DBA0",
"j  c #EED091",
"k  c #F1E0A6",
"l  c #EFDDB3",
"z  c #F0D89D",
"x  c #F3E3B1",
"c  c #E5C072",
"v  c #E5C173",
"b  c #E3BE6E",
"n  c #F5EAD0",
"m  c #F2DE9D",
"M  c #F3DDAC",
"N  c #F0DCA3",
"B  c #F2E3A7",
"V  c #EECD8B",
"C  c #F2E1A2",
"Z  c #EECE8D",
"A  c #F3E4AF",
"S  c #EDCA87",
"D  c #EFD69A",
"F  c #EED293",
"G  c #F1E1BD",
"H  c #EFD599",
"J  c #EFD597",
"K  c #F3D59D",
"L  c #EED08F",
"P  c #F2DD9A",
"I  c #F3E0AF",
"U  c #EED294",
"Y  c #FBF6EC",
"T  c #F0D79A",
"R  c #F3E0B0",
"E  c #EDC985",
"W  c #EECF8F",
"Q  c #E5C47A",
"!  c #EECC8A",
"~  c #F1DDA3",
"^  c #F0D79C",
"/  c #E2BE6E",
"(  c #F3E2B1",
")  c #EED192",
"_  c #E2BF6F",
"`  c #EACE8A",
"'  c #F1D48D",
"]  c #ECC782",
"[  c #F3E2B0",
"{  c #F2D992",
"}  c #EFD396",
"|  c #EECB89",
" . c #E5C378",
".. c #EFD99D",
"X. c #F7EED9",
"o. c #EDCA86",
"O. c #F3E4AE",
"+. c #EBC57D",
"@. c #F3DBA8",
"#. c #F0DA9E",
"$. c #F2D990",
"%. c #E5BF71",
"&. c #F2E2A5",
"*. c #ECC47C",
"=. c #F2E4AB",
"-. c #EECE8C",
";. c #F0D699",
":. c #EFD394",
">. c #F2D892",
",. c #EECF8E",
"<. c #F0D69A",
"1. c #F0D69B",
"2. c #E8C278",
"3. c #E5C073",
"4. c #E4C173",
"5. c #F1D690",
"6. c #F1DA98",
"7. c #F3DAA6",
"8. c #F0D089",
"9. c #E6C073",
"0. c #F0D28E",
"q. c #E5C47D",
"w. c #E3BF70",
"e. c #E4C47B",
"r. c #E5BF70",
"t. c #E2BD6D",
"y. c #F2E1A7",
"u. c #EEC984",
"i. c #ECC57D",
"p. c #E3BE6F",
"a. c #F0D89C",
"s. c #F3E1B0",
"d. c #E2BC6B",
"f. c #EFD499",
"g. c #F0CD8E",
"h. c #F3DBA9",
"j. c #F1CE91",
"k. c #EFD092",
"l. c #EDCC89",
"z. c #E4C176",
"x. c #E5C579",
"c. c #E7BF73",
"v. c #ECC57E",
"b. c #EDCB89",
"n. c #F2D299",
"m. c #E9CC87",
"M. c #F3E4B0",
"N. c #EDD08F",
"B. c #E4BD6D",
"V. c #F3DFAF",
"C. c #F2E0A0",
"Z. c #F3D9A6",
"A. c #ECC883",
"S. c #F2DC9B",
"D. c #EBCB86",
"F. c #F1DDA1",
"G. c #ECC27A",
"H. c #F3D095",
"J. c #F2D197",
"K. c #F2D791",
"L. c #EFD091",
"P. c #F2D893",
"I. c #EBC279",
"U. c #E3C073",
"Y. c #F0DCA1",
"T. c #F0D89B",
"R. c #F1DEA3",
"E. c #F0CE90",
"W. c #E9C075",
"Q. c #E7C378",
"!. c #F2E1A5",
"~. c #F0D69C",
"^. c #E9C67E",
"/. c #EBC47C",
"(. c #E5C379",
"). c #F3DEAD",
"_. c #E3C174",
"`. c #F3E1B1",
"'. c #F1DC9E",
"]. c #F4E0AF",
"[. c #F0C987",
"{. c #F0D99F",
"}. c #F3D6A0",
"|. c #E8C881",
" X c #E9C881",
".X c #F2E3A9",
"XX c #EDC984",
"oX c #ECC984",
"OX c #EDD394",
"+X c #E6C67C",
"@X c #F2DB95",
"#X c #F3DCAB",
"$X c #E4C378",
"%X c #F3D8A3",
"&X c #E5C175",
"*X c #F2DE9F",
"=X c #EEC884",
"-X c #ECD190",
";X c #F2D890",
":X c #E7C379",
">X c #EED799",
",X c #EFCC8A",
"<X c #EACC87",
"1X c #F0D59A",
"2X c #E5C277",
"3X c #F3D6A1",
"4X c #EFCD8C",
"5X c #E2BD6C",
"6X c #EEC983",
"7X c #F2DB99",
"8X c #E9CC86",
"9X c #EFDA9E",
"0X c None",
/* pixels */
"0X0X0X0X0X0X0X0X0X0X0X0X0X0X0X0X0X0X0X0X0X0X0X0X0X0X0X0X0X0X0X0X",
"0X0X0X0X0X0X0X0X0X0XY G + _ a a a a 0 i @ 6 0X0X0X0X0X0X0X0X0X0X",
"0X0X0X0X0X0X0X0X6 r _ ` ..; $ * * $ ; >Xm.$XG 0X0X0X0X0X0X0X0X0X",
"0X0X0X0X0X0X0X6 0 8Xh N 7 w # k k # w 7 N ..+X: 0X0X0X0X0X0X0X0X",
"0X0X0X0X0Xu l 0 ` ; - # O o . . . . o O # - ; x.r G 6 0X0X0X0X0X",
"0X0X0X6 i 4.<XOXY.= O o . X       X X . o O 7 9X-X|._.n 0X0X0X0X",
"0X0X6 0  X< ^ ; 7 O . X                 X . O 7 h ^ F w.@ 0X0X0X",
"0X0X+ ^.) 4 #.* # P.X                     X S.F.* #.4 N. .u 0X0X",
"0X@ v Z y % ; = o >.                        >.s = ; % y D.0 0X0X",
"0Xe.oXW 8 z $ # . P C                       { . # $ z 8 W Q.@ 0X",
"u %.g > 9 {.~ O . B @X                    m m . O ~ e 9 > o.q.0X",
"l 2.3 , 4 & - s X   $.                    2   .XO - & 4 j 3 %.n ",
"+ +.| ) ;.& - s X   d &.                  $.  X s - & ;., | 2.r ",
"+ i.3 j H & - O .   C d                 C P   . O - & H j 3 /.+ ",
"+ *.S > 9 e * k .     2                 2 B   . k * e J > S *.+ ",
"+ I.E ,.< z $ # o X   2 B               2   X o w $ a.< ,.E G.+ ",
"r c.] V F T t 7 O . X C.m             &.d X . O - t <.F V ] W.i ",
"Y d.+.3 > J f $ w o .   2             d !.. o w $ f J > g v.B.X.",
"0X@ 5XA.-.U <.& * # o . {             ;X. o # * & D U -.XXr.@ 0X",
"0X0X@ t.o.L < % t * # O 7X*XX X X X y.K.O # * t % < L g c : 0X0X",
"0X0X0X@ / g , 8 % & $ = R.5.o o o o 6.'.= $ & % 8 j ! 3.: 0X0X0X",
"0X0X0X0X@ b l., < % e h N ' = = = = ' $ h e T < , V v : 0X0X0X0X",
"0X0X0X0X0X@ b b.> :.9 % f 0.T.; ; t 8.f % 9 :.> ! v : 0X0X0X0X0X",
"0X0X0X0X0X0X@ b S Z , y 8 4 D % % D 4 8 y , Z 3 3.: 0X0X0X0X0X0X",
"0X0X0X0X0X0X0X@ c 6X,XL.} f.1X1.~.1.H } k.4Xu.c : 0X0X0X0X0X0X0X",
"0X0X0X0X0X0X0Xu U.[.K h.V.[ 1 1 1 1 [ R M %Xj.p.X.0X0X0X0X0X0X0X",
"0X0X0X0X0X0X0X: =X3X).( A p =.      q O.x ].7.E.+ 0X0X0X0X0X0X0X",
"0X0X0X0X0X0X0X+ H.@.R 1 p             =.A ( M K + 0X0X0X0X0X0X0X",
"0X0X0X0X0X0X0Xi g.Z.I x p             q M.`.#Xn.+ 0X0X0X0X0X0X0X",
"0X0X0X0X0X0X0Xn 9.J.@.I x A p q q q O.1 s.M }.:Xl 0X0X0X0X0X0X0X",
"0X0X0X0X0X0X0X0Xl z.&X .Q 5 5 5 5 5 5 Q (.2X/ r 0X0X0X0X0X0X0X0X",
"0X0X0X0X0X0X0X0X0X0X0X0X0X0X0X0X0X0X0X0X0X0X0X0X0X0X0X0X0X0X0X0X"
};
