/* XPM */
static char *a94c1d4704434386db6a32b153913814z64thu6OOOptQD3G[] = {
/* columns rows colors chars-per-pixel */
"32 32 231 2 ",
"   c #2DD7E8",
".  c #F2E4AA",
"X  c #129DC3",
"o  c #F2E2A9",
"O  c #F2E3AA",
"+  c #F2E1A8",
"@  c #F1E0A7",
"#  c #F1DFA6",
"$  c #70CDB8",
"%  c #F0D79B",
"&  c #F0DCA2",
"*  c #F0DA9F",
"=  c #F0DDA3",
"-  c #F0DBA1",
";  c #F1DDA4",
":  c #F1DEA5",
">  c #EED090",
",  c #EFD496",
"<  c #AAAF7C",
"1  c #9DC698",
"2  c #EED191",
"3  c #EFD497",
"4  c #F3E3B0",
"5  c #38D5E0",
"6  c #EFD699",
"7  c #EECB88",
"8  c #E5C57A",
"9  c #F2DA92",
"0  c #B3C288",
"q  c #F1DEA4",
"w  c #F0DAA0",
"e  c #EFD598",
"r  c #F2E4AC",
"t  c #F0D99E",
"y  c #F1DFA5",
"u  c #BEC080",
"i  c #F2DC98",
"p  c #F0D99D",
"a  c #EFD395",
"s  c #F0DBA0",
"d  c #F1E1A7",
"f  c #F1E0A6",
"g  c #E4C376",
"h  c #EDCB88",
"j  c #F2E4AD",
"k  c #EED091",
"l  c #0B8FBA",
"z  c #F2DE9D",
"x  c #7BCBB0",
"c  c #F0D89D",
"v  c #EECD8B",
"b  c #F3E4AF",
"n  c #E3BE6E",
"m  c #EED293",
"M  c #92C7A0",
"N  c #F2E1A2",
"B  c #87C9A8",
"V  c #E5C173",
"C  c #E5C072",
"Z  c #F3E3B1",
"A  c #F3DDAC",
"S  c #F2E3A7",
"D  c #EFD599",
"F  c #EFD69A",
"G  c #EDCA87",
"H  c #EECE8D",
"J  c #4FD2D0",
"K  c #F0DCA3",
"L  c #A8C490",
"P  c #AEECF5",
"I  c #EFD597",
"U  c #F0D69B",
"Y  c #F2D990",
"T  c #F1D48D",
"R  c #EED294",
"E  c #EFD394",
"W  c #EBC57D",
"Q  c #F3E2B0",
"!  c #F3D59D",
"~  c #F3E2B1",
"^  c #EECE8C",
"/  c #F3E0B0",
"(  c #E2BE6E",
")  c #F0D69A",
"_  c #EFD396",
"`  c #E2BF6F",
"'  c #F0D79A",
"]  c #E5C073",
"[  c #F3E4AE",
"{  c #EDCA86",
"}  c #F2E4AB",
"|  c #F1DDA3",
" . c #F0DA9E",
".. c #E8C278",
"X. c #ECC782",
"o. c #EECC8A",
"O. c #82A68B",
"+. c #65CEC0",
"@. c #F2D892",
"#. c #38D9E9",
"$. c #F2D992",
"%. c #EDC985",
"&. c #F2E2A5",
"*. c #F2DD9A",
"=. c #EFD99D",
"-. c #EECF8E",
";. c #EED192",
":. c #EECF8F",
">. c #ECC47C",
",. c #F3DBA8",
"<. c #F3E0AF",
"1. c #F0D79C",
"2. c #E5BF71",
"3. c #EACE8A",
"4. c #E5C47A",
"5. c #EED08F",
"6. c #EECB89",
"7. c #F0D699",
"8. c #3498AB",
"9. c #D6BE73",
"0. c #F3D6A1",
"q. c #E9CC86",
"w. c #F2DB99",
"e. c #E5BF70",
"r. c #ECC984",
"t. c #F1DDA1",
"y. c #ECC883",
"u. c #F3DCAB",
"i. c #D7BF75",
"p. c #EFCD8C",
"a. c #E5C277",
"s. c #EEC984",
"d. c #43DBEA",
"f. c #ECC57D",
"g. c #F2D197",
"h. c #DDD09E",
"j. c #F2D893",
"k. c #EDC984",
"l. c #F0DCA1",
"z. c #A3EAF4",
"x. c #C4F0F7",
"c. c #F0D89C",
"v. c #43D4D8",
"b. c #D7C177",
"n. c #F1D690",
"m. c #4C999E",
"M. c #E5C579",
"N. c #419BA6",
"B. c #E6C67C",
"V. c #E7C379",
"C. c #F3E4B0",
"Z. c #E9C075",
"A. c #EFD091",
"S. c #F3DFAF",
"D. c #F3DEAD",
"F. c #E5C175",
"G. c #F0C987",
"H. c #EDCC89",
"J. c #F3DBA9",
"K. c #F1DC9E",
"L. c #E6C073",
"P. c #EEC884",
"I. c #F0D59A",
"U. c #EDCB89",
"Y. c #F2E0A0",
"T. c #F2DC9B",
"R. c #E8C881",
"E. c #F0CE90",
"W. c #EBC47C",
"Q. c #F3D8A3",
"!. c #EED799",
"~. c #F2E1A7",
"^. c #F1CE91",
"/. c #75A390",
"(. c #F2D299",
"). c #CABF78",
"_. c #EFDA9E",
"`. c #D0E3D4",
"'. c #ECC27A",
"]. c #F1DEA3",
"[. c #E2BD6C",
"{. c #F0D89B",
"}. c #D6BE72",
"|. c #F3DAA6",
" X c #EBC279",
".X c #E7C378",
"XX c #E4BD6D",
"oX c #EFCC8A",
"OX c #F3E1B1",
"+X c #F2E1A5",
"@X c #F0D089",
"#X c #E9C67E",
"$X c #F0D99F",
"%X c #E3BF70",
"&X c #F2E3A9",
"*X c #F3D6A0",
"=X c #F0D28E",
"-X c #E7BF73",
";X c #EFD092",
":X c #E5C379",
">X c #EBCB86",
",X c #E9C881",
"<X c #F0CD8E",
"1X c #F2DB95",
"2X c #F3E1B0",
"3X c #F0D69C",
"4X c #F2D791",
"5X c #9DAC81",
"6X c #ECD190",
"7X c #ECC57E",
"8X c #289AB3",
"9X c #E9CC87",
"0X c #F3D9A6",
"qX c #EDD08F",
"wX c #EEC983",
"eX c #E5C378",
"rX c #F3D095",
"tX c #E2BC6B",
"yX c #CABF7A",
"uX c #E2BD6D",
"iX c #D7C077",
"pX c #EACC87",
"aX c #F2DE9F",
"sX c #F4E0AF",
"dX c #EDD394",
"fX c #F2D890",
"gX c #E4C173",
"hX c #EFD499",
"jX c #E3BE6F",
"kX c #CEF1F8",
"lX c #F1DA98",
/* pixels */
"l X X X X X X X X X X X X X X X X X X X X X X X X X X X X X X l ",
"X                   v.x 0 ` g g g g u L $ 5                   X ",
"X               5 M ` 3.=.- & = = & - !.9Xb.x                 X ",
"X             5 u q.s K q y # f f # y q K =.B.1               X ",
"X         J B u 3.- ; # @ + o o o o + @ # ; - M.M x 5         X ",
"X     5 L gXpXdXl.: @ + o O . . . O O o + @ q _.6XR.9.+.      X ",
"X   5 u ,X, 1.- q @ o O . . . . . . . . O o @ q s 1.m %X$     X ",
"X   0 #X;.6  .= # j.O . . . . . . . . . . O T.t.=  .6 qXiXJ   X ",
"X $ V H a % - : + @.. . . . . . . . . . . . @.d : - % a >Xu   X ",
"X ).r.:.3 c & # o *.N . . . . . . . . . . . $.o # & c 3 :..X$ X ",
"8.2.h > e $X| @ o S 1X. . . . . . . . . . z z o @ | t e > { yXX ",
"/...7 2 6 * ; d O . Y . . . . . . . . . . 9 . &X@ ; * 6 k 7 2.m.",
"< W 6.;.7.* ; d O . i &.. . . . . . . . . Y . O d ; * 7.2 6...O.",
"< f.7 k D * ; @ o . N i . . . . . . . . N *.. o @ ; * D k 7 W.< ",
"< >.G > e t = f o . . 9 . . . . . . . . 9 S . o f = t I > G >.< ",
"<  X%.-., c & # + O . 9 S . . . . . . . 9 . O + y & c., -.%.'.< ",
"O.-XX.v m ' w q @ o O Y.z . . . . . . &.i O o @ ; w ) m v X.Z.5X",
"8XtXW 7 > I p & y + o . 9 . . . . . . i +Xo + y & p I > h 7XXXN.",
"X $ [.y.^ R ) * = # + o $.. . . . . . fXo + # = * F R ^ k.e.$ X ",
"X   $ uX{ 5., % w = # @ w.aXO O O O ~.4X@ # = w % , 5.h C 1   X ",
"X     $ ( h 2 3 % * & : ].n.+ + + + lXK.: & * % 3 k o.] 1     X ",
"X       $ n H.2 , % t s K T : : : : T & s t ' , 2 v V 1       X ",
"X         $ n U.> E e % p =X{.- - w @Xp % e E > o.V 1         X ",
"X           $ n G H 2 a 3 6 F % % F 6 3 a 2 H 7 ] 1           X ",
"X             $ C wXoXA._ hXI.U 3XU D _ ;Xp.s.C h.kXP #.      X ",
"X             J }.G.! J.S.Q 4 4 4 4 Q / A Q.^.jX`.d.z.P       X ",
"X             1 P.0.D.~ b j } . . . r [ Z sX|.E.0   #.P x.    X ",
"X             0 rX,./ 4 j . . . . . . } b ~ A ! 0             X ",
"X             L <X0X<.Z j . . . . . . r C.OXu.(.0             X ",
"X             +.L.g.,.<.Z b j r r r [ 4 2XA *XV.B             X ",
"X               B i.F.eX4.8 8 8 8 8 8 4.:Xa.( M               X ",
"l X X X X X X X X X X X X X X X X X X X X X X X X X X X X X X l "
};
