/* XPM */
static char *baf713d0bec241a3db30443f438039bfOPCxi1X5xPGGwRHa[] = {
/* columns rows colors chars-per-pixel */
"32 32 18 1 ",
"  c #2DD7E8",
". c #129DC3",
"X c #38D9E9",
"o c #CEF1F8",
"O c #6EE2EE",
"+ c #AEECF5",
"@ c #4DDCEB",
"# c #C4F0F7",
"$ c #D9F3F9",
"% c #B9EEF6",
"& c #99E9F3",
"* c #8EE7F2",
"= c #0B8FBA",
"- c #43DBEA",
"; c #A3EAF4",
": c #58DEEC",
"> c #83E5F1",
", c #78E3EF",
/* pixels */
"=..............................=",
".                              .",
".                              .",
".                              .",
".                              .",
".             Oo#@  Oo#@       .",
".            Oo@Oo@Oo@,oX      .",
".           OoO  >$o:  *$-     .",
".                              .",
".                              .",
".                              .",
".                              .",
".                              .",
".                              .",
".                              .",
".    ;$%- X+$+X                .",
".   &%X&%X&+ &%X               .",
".  ;+X  *$+X X&#               .",
".                              .",
".                              .",
".                              .",
".                              .",
".                              .",
".                              .",
".                 @+oO  >o+X   .",
".                X%*@$:Oo-;+   .",
".                #*  Oo#@ X+#  .",
".                              .",
".                              .",
".                              .",
".                              .",
"=..............................="
};
