/* XPM */
static char *_3145562b2e34988a38e6bd093f41a66vXdq3EPaFUM0BgcY[] = {
/* columns rows colors chars-per-pixel */
"32 32 16 1 ",
"  c #4B97E2",
". c #497CB2",
"X c #497EB5",
"o c #4B95DF",
"O c #4A8DD0",
"+ c #4A83BE",
"@ c #4B92D9",
"# c #497FB8",
"$ c #4981BB",
"% c #4A86C4",
"& c #4A88C7",
"* c #4A84C1",
"= c #4B94DC",
"- c #4B90D6",
"; c #4A8ACA",
": c #4A8BCD",
/* pixels */
"................................",
".                              .",
".                              .",
".                              .",
".                              .",
".             OX#@  OX#@       .",
".            OX@OX@OX@:Xo      .",
".           OXO  ;.X-  &.=     .",
".                              .",
".                              .",
".                              .",
".                              .",
".                              .",
".                              .",
".                              .",
".    *.$= o+.+o                .",
".   %$o%$o%+ %$o               .",
".  *+o  &.+o o%#               .",
".                              .",
".                              .",
".                              .",
".                              .",
".                              .",
".                              .",
".                 @+XO  ;X+o   .",
".                o$&@.-OX=*+   .",
".                #&  OX#@ o+#  .",
".                              .",
".                              .",
".                              .",
".                              .",
"................................"
};
