/* XPM */
static char *_0f404b14f294a24ca8857b6904b8b0dexbmIcxWIt8HiFk7[] = {
/* columns rows colors chars-per-pixel */
"32 32 30 1 ",
"  c #E8CB52",
". c #E5BD39",
"X c #F8EBC7",
"o c #F0D78F",
"O c #E7C446",
"+ c #FBF5E3",
"@ c #E6C13F",
"# c #E7C84C",
"$ c #F4E1AB",
"% c #EBCA65",
"& c #FDFAF1",
"* c #E7C649",
"= c #E6C242",
"- c #E5BF3C",
"; c #E8C94F",
": c #E6BE41",
"> c #E9C759",
", c #E8C354",
"< c #F2DC9D",
"1 c #EED17A",
"2 c #E9C556",
"3 c #E5BB36",
"4 c #F3DEA0",
"5 c #EBC862",
"6 c #F6E6B9",
"7 c #ECCC6C",
"8 c #E7C044",
"9 c #E7C24C",
"0 c #ECCE70",
"q c None",
/* pixels */
"qqqqqqqqqqqqq+$oo$+qqqqqqqqqqqqq",
"qqqqqqqqqqqX%@#  #@%Xqqqqqqqqqqq",
"qqqqqqqqqq4@        @4qqqqqqqqqq",
"qqqqqqqqq$*          *$qqqqqqqqq",
"qqqqqqqq+-   O>oo>O   -+qqqqqqqq",
"qqqqqqqq1   @$qqqq$@   1qqqqqqqq",
"qqqqqqqq3  #<qqqqqq<#  3qqqqqqqq",
"qqqqqqqX=  8qqqqqqqq8  =Xqqqqqqq",
"qqqqqqqXO  %qqqqqqqq%  OXqqqqqqq",
"qqqqqqqXO  >qqqqqqqq>  OXqqqqqqq",
"qqqqqqq+-  @+qqqqqq+@  -+qqqqqqq",
"qqqqqqqq9   ,&qqqq&,   9qqqqqqqq",
"qqqqqqqq$#  ;26qq62;  #$qqqqqqqq",
"qqqqqqqqq,    *..*    ,qqqqqqqqq",
"qqqqqqqqq+:;        ;:+qqqqqqqqq",
"qqqqqqqqqq&5O      O5&qqqqqqqqqq",
"qqqqqqqqqqqqX7=  =7Xqqqqqqqqqqqq",
"qqqqqqqqqqqqqq.  .qqqqqqqqqqqqqq",
"qqqqqqqqqqqqqq.  .qqqqqqqqqqqqqq",
"qqqqqqqqqqqqqq.  .qqqqqqqqqqqqqq",
"qqqqqqqqX0%%%%@  .qqqqqqqqqqqqqq",
"qqqqqqq+.        .qqqqqqqqqqqqqq",
"qqqqqqqXO        .qqqqqqqqqqqqqq",
"qqqqqqqq2OOOOO#  .qqqqqqqqqqqqqq",
"qqqqqqqq&XXXXX.  .qqqqqqqqqqqqqq",
"qqqqqqqqqqqqqq.  .qqqqqqqqqqqqqq",
"qqqqqqqqqqqqqq.  .qqqqqqqqqqqqqq",
"qqqqqqqq+ooooo.  .qqqqqqqqqqqqqq",
"qqqqqqq&:        .qqqqqqqqqqqqqq",
"qqqqqqqXO        3qqqqqqqqqqqqqq",
"qqqqqqq&:       #1qqqqqqqqqqqqqq",
"qqqqqqqq+ooooooo<&qqqqqqqqqqqqqq"
};
