/* XPM */
static char *_8687d59888a413d9165b94201e43cb98UYImQDH5qpL14qM[] = {
/* columns rows colors chars-per-pixel */
"32 32 56 1 ",
"  c #2DD7E8",
". c #FFE45C",
"X c #129DC3",
"o c #F4CC47",
"O c #5CCEBA",
"+ c #F9D851",
"@ c #44D3D1",
"# c #CEF1F8",
"$ c #F6D24C",
"% c #799F74",
"& c #6EE2EE",
"* c #38D9E9",
"= c #BFC86A",
"- c #FCDE57",
"; c #8BC58D",
": c #AEECF5",
"> c #73CAA3",
", c #4DDCEB",
"< c #39D5DD",
"1 c #FBDB54",
"2 c #E5C84D",
"3 c #B9EEF6",
"4 c #F5CF49",
"5 c #C9C35B",
"6 c #F8D54F",
"7 c #0B8FBA",
"8 c #CCC961",
"9 c #D9F3F9",
"0 c #FEE159",
"q c #CBC65E",
"w c #C4F0F7",
"e c #99E9F3",
"r c #A5C77B",
"t c #43DBEA",
"y c #8EE7F2",
"u c #A3EAF4",
"i c #2999AC",
"p c #F2C844",
"a c #5D9985",
"s c #D8C755",
"d c #67CCAF",
"f c #E6CB4F",
"g c #80CA9B",
"h c #83E5F1",
"j c #58DEEC",
"k c #DDE3C7",
"l c #B2C772",
"z c #1E9BB8",
"x c #7FC798",
"c c #E9CC6B",
"v c #6B9C7C",
"b c #B0C470",
"n c #43D7DE",
"m c #BEC567",
"M c #9FCD9B",
"N c #BBC671",
/* pixels */
"7XXXXXXXXXXXXia%%aiXXXXXXXXXXXX7",
"X          O=$-..-$=O          X",
"X         g$........$g         X",
"X        >1..........1>        X",
"X       @4...+8;;8+...4@       X",
"X       r...$>&#w,>$...r       X",
"X       p..-x&#,&#,M-..p*      X",
"X      O6..f&#&  h9#f..6kt     X",
"X      O+..=        =..+O      X",
"X      O+..8        8..+O      X",
"X      @4..$@      @$..4@      X",
"X       s...5<    <5...s       X",
"X       >-..0qd  dq0..->       X",
"X        5....1oo1....5        X",
"X        @20........02@        X",
"X    u93t nc+......+m<         X",
"X   e3*e3*e:ON6..6bO           X",
"X  u:*  y9:* *o..o             X",
"X             o..o             X",
"X             o..o             X",
"X       Ol====$..o             X",
"X      @o........o             X",
"X      O+........o             X",
"X       q+++++-..o             X",
"X       <OOOOOo..o,:#&  h#:*   X",
"X             o..o3y,9j&#tu:   X",
"X             o..oy  &#w, *:w  X",
"X       @;;;;;o..o             X",
"X      <2........o             X",
"X      O+........p             X",
"X      <2.......-r             X",
"7XXXXXXXi%%%%%%%vzXXXXXXXXXXXXX7"
};
