/* XPM */
static char *cbe1798e65b74f04e8f126731aef537d7k3VtwpE6pqEhUOr[] = {
/* columns rows colors chars-per-pixel */
"32 32 256 2 ",
"   c #46D5F6",
".  c #49C9F2",
"X  c #58E2FC",
"o  c #56E0FB",
"O  c #36C8F0",
"+  c #BCF4F9",
"@  c #61CAF2",
"#  c #2DB3DB",
"$  c #3BC6F0",
"%  c #8BECF5",
"&  c #46BEE6",
"*  c #F4EEDA",
"=  c #35B6DE",
"-  c #93D7F0",
";  c #81EFF6",
":  c #70F2FA",
">  c #3EC7F1",
",  c #3CC6F0",
"<  c #57CCF5",
"1  c #5AC9F1",
"2  c #56CAF3",
"3  c #5FE7FE",
"4  c #C9EEEC",
"5  c #57E1FC",
"6  c #E1EAE0",
"7  c #7BF1F7",
"8  c #9BF9FD",
"9  c #45C8F2",
"0  c #84F1F7",
"q  c #7CD3F3",
"w  c #42D2F5",
"e  c #5FCDF0",
"r  c #33B4DC",
"t  c #4DCAF3",
"y  c #6DEFFC",
"u  c #24AED6",
"i  c #69EDFD",
"p  c #63E9FE",
"a  c #DBEBE5",
"s  c #4EDBF9",
"d  c #65CEF7",
"f  c #4DD9F8",
"g  c #64E8FE",
"h  c #43C8F1",
"j  c #41C7F1",
"k  c #4AC3EC",
"l  c #EDEDDD",
"z  c #D9EEE7",
"x  c #C7EFED",
"c  c #BCEFF0",
"v  c #B3E1EB",
"b  c #A5E4F3",
"n  c #26AFD6",
"m  c #E4EEE2",
"M  c #E3EEE2",
"N  c #ADF8FB",
"B  c #66E9FF",
"V  c #2DD7E8",
"C  c #129DC3",
"Z  c #15A7CE",
"A  c #2CD4E6",
"S  c #87EBF4",
"D  c #3CCDF2",
"F  c #34C6EF",
"G  c #72F2F9",
"H  c #1DB6D6",
"J  c #24C5DE",
"K  c #21BFDB",
"L  c #65EBFE",
"P  c #50DCF9",
"I  c #6EF0FB",
"U  c #2AD1E5",
"Y  c #82EEF5",
"T  c #72F3F9",
"R  c #18ADD1",
"E  c #1EB9D8",
"W  c #1BB3D5",
"Q  c #36C6EF",
"!  c #63EAFE",
"~  c #60E8FE",
"^  c #6BEFFC",
"/  c #3ACCF2",
"(  c #30B4DB",
")  c #86EBF4",
"_  c #49D7F7",
"`  c #35C8F0",
"'  c #83EEF5",
"]  c #41D1F4",
"[  c #74F3F8",
"{  c #7DF0F7",
"}  c #7FF0F6",
"|  c #77F2F8",
" . c #86ECF4",
".. c #0B8FBA",
"X. c #FBEED6",
"o. c #3FCFF3",
"O. c #1AB0D3",
"+. c #73F3F8",
"@. c #45D4F6",
"#. c #35C6EF",
"$. c #53DFFB",
"%. c #48D6F7",
"&. c #76F2F8",
"*. c #37C6EF",
"=. c #70F1FA",
"-. c #62CEF7",
";. c #5BE4FD",
":. c #38C6EF",
">. c #6FF1FA",
",. c #38CAF1",
"<. c #35C7EF",
"1. c #72F3F8",
"2. c #6BEEFC",
"3. c #84EDF5",
"4. c #3ACBF1",
"5. c #5ACCF5",
"6. c #17AAD0",
"7. c #45D4F5",
"8. c #52CBF4",
"9. c #6DEFFB",
"0. c #53DEFA",
"q. c #4AD8F7",
"w. c #44D3F5",
"e. c #32B6DD",
"r. c #51C7F0",
"t. c #38B7DE",
"y. c #5CE5FD",
"u. c #6DF0FB",
"i. c #5BCDF6",
"p. c #71F2FA",
"a. c #42D1F4",
"s. c #53C6EF",
"d. c #7CF1F7",
"f. c #59CCF5",
"g. c #3BCDF2",
"h. c #50CAF4",
"j. c #50C9F2",
"k. c #67ECFD",
"l. c #6AEDFD",
"z. c #3DCEF3",
"x. c #53C5ED",
"c. c #4FDCF9",
"v. c #37C9F1",
"b. c #41BDE5",
"n. c #9FF0F6",
"m. c #3FBDE5",
"M. c #54C8F1",
"N. c #47D6F6",
"B. c #34C7EF",
"V. c #79F1F7",
"C. c #79F2F7",
"Z. c #35C7F0",
"A. c #51C5ED",
"S. c #59E3FC",
"D. c #6AEEFC",
"F. c #66CFF8",
"G. c #52DEFA",
"H. c #49D6F7",
"J. c #85ECF4",
"K. c #85EDF5",
"L. c #74F2F8",
"P. c #75F2F8",
"I. c #7DF0F6",
"U. c #7FEFF6",
"Y. c #3BCCF2",
"T. c #4EC5EE",
"R. c #7EF0F6",
"E. c #55C7EF",
"W. c white",
"Q. c #A8DCEA",
"!. c #6CD9F5",
"~. c #7FF1F7",
"^. c #69CEF4",
"/. c #D2F7FB",
"(. c #89D5F1",
"). c #EDECDB",
"_. c #85E4F9",
"`. c #40CAF1",
"'. c #CBFAFC",
"]. c #A1EDF7",
"[. c #D8E9E3",
"{. c #53CBF3",
"}. c #78D4EF",
"|. c #DEE9E0",
" X c #C4F0F7",
".X c #C3F6FA",
"XX c #CDF6FB",
"oX c #80F2FD",
"OX c #E8EFE8",
"+X c #E2E8DD",
"@X c #94EFF5",
"#X c #93E9FA",
"$X c #DCEDE5",
"%X c #99EFF8",
"&X c #D4EEF4",
"*X c #97F8FB",
"=X c #9CDEEF",
"-X c #BAE1E8",
";X c #C4E7EA",
":X c #BDE2E9",
">X c #BFE4E9",
",X c #74F3FA",
"<X c #60DFFA",
"1X c #6BD0F7",
"2X c #FDFBF5",
"3X c #ABEBF5",
"4X c #77D2EF",
"5X c #81D9F2",
"6X c #3DC8F0",
"7X c #8FDDF1",
"8X c #BFE4ED",
"9X c #73EFFC",
"0X c #97F0F6",
"qX c #83E0F6",
"wX c #C2E8EB",
"eX c #C1EDEF",
"rX c #9DE5F3",
"tX c #85D4EF",
"yX c #7AF1FD",
"uX c #BFE6F2",
"iX c #4ED1F3",
"pX c #5CE5FE",
"aX c #5DE6FE",
"sX c #31B7D7",
"dX c #83ECFC",
"fX c #78DAF4",
"gX c #72F2FA",
"hX c #82D4EF",
"jX c #EBEEDF",
"kX c #62E5FD",
"lX c #F3EEDA",
"zX c #C8EAEC",
"xX c #55D9F7",
"cX c #75F3F8",
"vX c #F8EDD7",
"bX c #5ECAF3",
"nX c #4ED5F6",
"mX c #D6E8E6",
"MX c #70D0EF",
"NX c #85EDF4",
"BX c #F4EDD9",
"VX c #F5EEDA",
"CX c #BEEAEF",
"ZX c #5FCCF5",
"AX c #54DFFB",
"SX c #75E1F9",
"DX c #A2E7F2",
"FX c #78F3F8",
"GX c #C9E3E4",
"HX c #84D5ED",
"JX c #CEE4E2",
"KX c #87D7EF",
"LX c #92F0F5",
"PX c #47C8F0",
"IX c #FEFEFD",
"UX c #B9E6ED",
/* pixels */
"..C C C C C C C C C C C C C C C C C C C C C C C C C C C C C C ..",
"C V V V V V V V V V A J H R Z Z Z Z R H J A V V V V V V V V V C ",
"C V V V V V V V U E Z r & x.F.-.-.d A.& r Z E U V V V V V V V C ",
"C V V V V V V K Z t.@ d {.9 > $ $ > h . < 1 = Z K V V V V V V C ",
"C V V V V A W n @ q (.tX4Xe `.,.,.v.` F *.j 8.E.n W A V V V V C ",
"C V V V A O.r ^.- uX&X:Xv =XfXnX  7.w o./ Z.Q 9 2 ( O.A V V V C ",
"C V V V W r 1X- 8XW.W.OX[.;Xb SXAX0.P f   ] 4.F > f.( W V V V C ",
"C V V K n ZXq Q.mXIX2XVXl a CX#XB ~ aXS.$.f 7.D B.> 2 n K V V C ",
"C V U Z 1 2 hX-X6 BXX.X.* m 4 ].9Xy i L 3 X P   D F h s.6.U V C ",
"C V E t.< PXKX>X6 VXX.X.* M 4 n.G p.=.I l.p S.P @./ #.t = E V C ",
"C A Z bX9 6X5XUXa l VXlXjXz c 0 cX[ 1.G >.^ ! S.s a.O > M.Z A C ",
"C J r 5.:.4.!.b zX$Xm M z x LX{ { d.C.[ T =.D.~ o H.D #.h.( J C ",
"C H & t :.iXxX_.3XeX4 x c @X; Y Y ; } 7 L.T I k.;.s ] <.9 b.H C ",
"C R x.. HXv qXkXdX%Xn.0X0 Y K. . .NX' U.V.+.p.2.3 0.@.,., k R C ",
"C Z F.e JX).UXg 2.gX[ 7 ; K.) S S S J.Y { P.G 9.! o %./ :.i.Z C ",
"C Z -.MX+XvXwXB y p.FXN '..X% S S S ) ' R.| G I L 5 _ g.Q < Z C ",
"C Z -.e GX|.rXB oX,X*XN Y + XX% S S ) 3.} | T I L 5 _ D Q < Z C ",
"C Z d j }.7X<X~ yX8 8 ~.; % + /.S S  .Y I.&.G u.! 5 %.Y.*.5.Z C ",
"C R A.h ` w P aXi =.1.C.} ' J.) )  .3.; 7 +.p.^ ~ $.@.,.$ k R C ",
"C H & . F o.f S.L I G [ 7 U.Y ' 3.Y ; d.&.T >.i y.c.w ` j m.H C ",
"C J r < *./   $.3 l.>.T L.V.{ R.} I.7 &.1.: ^ p 5 q.z.F t ( J C ",
"C A Z 1 j Z.] f X p ^ =.T +.P.| | &.+.T : 9.L ;.P w.v.$ r.Z A C ",
"C V E = 8.Q 4.7.P S.! D.I p.G G T G p.>.^ L pXG.N.D F . e.E V C ",
"C V U 6.E.9 F D   P S.~ k.2.9.I I u.^ i p ;.G._ o.<.> T.Z U V C ",
"C V V K n 2 > B.D @.s o ;.3 ! L L ! ~ y.5 P N.o.` $ j.u K V V C ",
"C V V V W ( f.> F / a.H.s 0.o 5 5 5 $.c.q.w.D <.$ 8.# sXV V V C ",
"C V V V A O.( 2 h #.O D ] @.%._ _ %.@.w z.v.F > j.# O.DX XV V C ",
"C V V V V A W n s.t > #.<.,./ g.D Y.,.` F $ . T.u W A V V V V C ",
"C V V V V V V K Z = M.h.9 , :.Q Q *.$ j t r.e.6.K V V V V V V C ",
"C V V V V V V V U E Z ( b.k i.< < 5.k m.( Z E U V V V V V V V C ",
"C V V V V V V V V V A J H R Z Z Z Z R H J A V V V V V V V V V C ",
"..C C C C C C C C C C C C C C C C C C C C C C C C C C C C C C .."
};
