/* XPM */
static char *c96a29fcd3904396b9575f8e213f32d3FpDJJ9ChIZY3qFhL[] = {
/* columns rows colors chars-per-pixel */
"32 32 241 2 ",
"   c #EFFFFF",
".  c #4CC8E5",
"X  c #EAFFFF",
"o  c #57CBE7",
"O  c #EDFFFF",
"+  c #D2F1F8",
"@  c #EEFFFF",
"#  c #E9F8FC",
"$  c #6ED8F0",
"%  c #EBFFFF",
"&  c #ECFFFF",
"*  c #70D7F1",
"=  c #79D6EC",
"-  c #62CFE8",
";  c #BCEAF5",
":  c #DDF5FA",
">  c #C7EEF7",
",  c #8FDDEF",
"<  c #72DBF2",
"1  c #84E3FA",
"2  c #E5FEFF",
"3  c #8FE7FD",
"4  c #E8FFFF",
"5  c #94E8FE",
"6  c #79DEF5",
"7  c #70DAF1",
"8  c #5ACDEA",
"9  c #E9FFFF",
"0  c #E0FDFF",
"q  c #93E8FD",
"w  c #FDFFD6",
"e  c #5CCDEB",
"r  c #D9FBFF",
"t  c #74D7F3",
"y  c #E7FEFF",
"u  c #E4FEFF",
"i  c #83E2F9",
"p  c #74DCF3",
"a  c #75DCF3",
"s  c #FDFFD5",
"d  c #7EE0F7",
"f  c #55CBE8",
"g  c #76D7F4",
"h  c #DAFBFF",
"j  c #8AE5FC",
"k  c #89E5FC",
"l  c #6FD9F1",
"z  c #71DAF1",
"x  c #B6F2FF",
"c  c #6FDAF1",
"v  c #77DDF4",
"b  c #6BD5F0",
"n  c #63D0ED",
"m  c #6DD5F0",
"M  c #6CD4F0",
"N  c #6FD7F1",
"B  c #6ED6F0",
"V  c #FBFDDD",
"C  c #95E8FE",
"Z  c #C2F5FF",
"A  c #54CBE8",
"S  c #E3FEFF",
"D  c #EAFEFF",
"F  c #D1F9FF",
"G  c #62D0EC",
"H  c #D5FAFF",
"J  c #56CBE9",
"K  c #89E5FB",
"L  c #59CDEA",
"P  c #FAFCE2",
"I  c #BCF4FF",
"U  c #70D5F1",
"Y  c #7FE1F8",
"T  c #86E3FA",
"R  c #5CCEEB",
"E  c #6CD6F0",
"W  c #65D0EE",
"Q  c #AAEEFF",
"!  c #C1F5FF",
"~  c #C3F6FF",
"^  c #67D3EE",
"/  c #B7F3FF",
"(  c #71D7F2",
")  c #A6EEFF",
"_  c #59CDE9",
"`  c #8DE6FD",
"'  c #ABEFFF",
"]  c #66D0EE",
"[  c #7BDFF6",
"{  c #78DDF4",
"}  c #BEF4FF",
"|  c #A5EDFF",
" . c #7CDFF6",
".. c #5ECEEC",
"X. c #6CD3F0",
"o. c #6FD6F1",
"O. c #6BD3F0",
"+. c #6DD4F1",
"@. c #6AD4EF",
"#. c #9EECFE",
"$. c #ACEFFF",
"%. c #7FE0F7",
"&. c #78DEF5",
"*. c #C7F7FF",
"=. c #90E7FD",
"-. c #B8F3FF",
";. c #DEFCFF",
":. c white",
">. c #E6FEFF",
",. c #71DBF2",
"<. c #D4F9FF",
"1. c #73DBF2",
"2. c #80E1F8",
"3. c #BAF3FF",
"4. c #98EAFE",
"5. c #5BCDEB",
"6. c #5BCEEA",
"7. c #81E1F8",
"8. c #CFF9FF",
"9. c #C6F7FF",
"0. c #D8FAFF",
"q. c #68D3EE",
"w. c #C4F6FF",
"e. c #9DECFF",
"r. c #5DCEEB",
"t. c #F9FBE9",
"y. c #B1F1FF",
"u. c #73DCF3",
"i. c #C9F7FF",
"p. c #FAFCDF",
"a. c #DEFDFF",
"s. c #FAFCE0",
"d. c #FAFED8",
"f. c #CEF7FF",
"g. c #C2EDF7",
"h. c #FCFED9",
"j. c #DFF4E9",
"k. c #7DD8F2",
"l. c #EEF8E9",
"z. c #E1FEFF",
"x. c #9DE5F8",
"c. c #B5E8F1",
"v. c #E9FEFF",
"b. c #F7FBEB",
"n. c #F7FCDF",
"m. c #F5FAEA",
"M. c #DAF2F0",
"N. c #75D9F0",
"B. c #E6F9F7",
"V. c #F6FCDB",
"C. c #F7FBE7",
"Z. c #F8FAEF",
"A. c #F4FBDA",
"S. c #F7FAF0",
"D. c #EFFAE3",
"F. c #F9FBE8",
"G. c #75D6F3",
"H. c #FBFDDE",
"J. c #FFFFF5",
"K. c #8EE0F1",
"L. c #F0FEFE",
"P. c #F7FBEA",
"I. c #EEFCFD",
"U. c #E8F7E1",
"Y. c #F2FDFB",
"T. c #D8F4F4",
"R. c #FCFEDA",
"E. c #E9F7E6",
"W. c #8ADFF0",
"Q. c #F5FAF8",
"!. c #7FDEF4",
"~. c #8BE6FC",
"^. c #E2F5E8",
"/. c #FBFDDC",
"(. c #EDFAFA",
"). c #85E3FA",
"_. c #F9FBEA",
"`. c #F3FAF7",
"'. c #F9FAEB",
"]. c #F7FCDC",
"[. c #F9FDE4",
"{. c #DFF4EB",
"}. c #B3E6ED",
"|. c #E1F5E6",
" X c #EFF9F2",
".X c #AEE7F3",
"XX c #F9FDDC",
"oX c #DFFDFF",
"OX c #F0FBF2",
"+X c #7CD9F3",
"@X c #B2E5ED",
"#X c #F1FAF9",
"$X c #F9FBE6",
"%X c #BCF3FF",
"&X c #85E2F9",
"*X c #94DEF1",
"=X c #B2E7F0",
"-X c #71D9F0",
";X c #BFECF3",
":X c #F5FAE6",
">X c #BAEBF0",
",X c #EAF8E0",
"<X c #E6FAFD",
"1X c #80E0F7",
"2X c #88E4FB",
"3X c #FDFED7",
"4X c #ABE4EE",
"5X c #E4F5EA",
"6X c #75DBF2",
"7X c #9DE1F0",
"8X c #C7F1FC",
"9X c #F4FAF8",
"0X c #EFF9F1",
"qX c #FCFED8",
"wX c #E2FCFD",
"eX c #CAF1FA",
"rX c #EDFEFF",
"tX c #9BE3EF",
"yX c #BBF4FF",
"uX c #73D6F2",
"iX c #72D5F2",
"pX c #A2EBFD",
"aX c #77D8F2",
"sX c #C5F6FF",
"dX c #FCFFD6",
"fX c #FDFFD7",
"gX c #FDFFD9",
"hX c #F1FDFD",
"jX c #B3EAF4",
"kX c #D3F0E9",
"lX c #FFFFFD",
"zX c #70D4F2",
"xX c #F2FDFA",
"cX c #8BE4FB",
"vX c #D7F2F1",
"bX c #F3FBFA",
"nX c #F3FCFA",
"mX c #EAF8F4",
"MX c #F5FAF2",
"NX c #76D5F2",
"BX c None",
/* pixels */
"BXBXBXBXBXBXBXBXBXBXBXBXBX# + + + + # BXBXBXBXBXBXBXBXBXBXBXBXBX",
"BXBXBXBXBXBXBXBXBXBX> , o . . . . . . o , > BXBXBXBXBXBXBXBXBXBX",
"BXBXBXBXBXBXBXBX; - . e ] X.g t t g O.W 5.. - ; BXBXBXBXBXBXBXBX",
"BXBXBXBXBXBX# = . ..G.aX-Xc < p p < 7 $ N U r.. = # BXBXBXBXBXBX",
"BXBXBXBXBX: o J NX*X4X=X.Xx.cXk j 2X1 Y &.z $ +.f o : BXBXBXBXBX",
"BXBXBXBX: o e k.@XM.mX^.j.vXeX%XyXx $.#.3 1 6 l o.8 o : BXBXBXBX",
"BXBXBX# o e +X}.{.:.:.[.n.:X X<Xz.oXh 8.} | ` %.,.* 8 o # BXBXBX",
"BXBXBX= J uX7XkXD.lXJ.gXqXp.P.#XD X 9 y 0 F x 5 7.< B f = BXBXBX",
"BXBX; . zXN.c.|.V.dXs s w /.F.`.rX& % X X >.r I C 2.7 M . ; BXBX",
"BXBX- ..* !.;XE.XXw s s fXV t.9X@ @ @ O % X 4 h -.3 [ $ R - BXBX",
"BX> . iXl &Xg.l.p.h.w 3XR.P Z.hX        O & X y <.Q T 1.m . > BX",
"BX, e * v ~.8X0X$Xs.V H.P '.xX            O % X S w.5  .$ 8 , BX",
"BXo ] $ 1XpXf.(.MXb.t._.S.Y.                O % 4 H ) i c n o BX",
"# . X.z >X5XB.v.I.bXQ.nXL.                  @ % X a./ k u.q.. # ",
"+ . g W.,Xd.m.D & @                         @ O X u Z 3 v ( . + ",
"+ . t tXA.w C.X & @                           O X 2 9.q 6 * . + ",
"+ . t K.U.].OXX & @                           O X 2 *.q 6 * . + ",
"+ . g 6XjXT.wXX & @                           O X u ~ =.{ * . + ",
"# . O.7 1 $.h 9 % @                         @ & X 0 3.j p ^ . # ",
"BXo W $ Y #.8.y X O                         O % 9 0.' 1 7 G o BX",
"BX, 5.N &.3 } 0 X % O                     @ & X 2 i.4.d $ L , BX",
"BX> . U z 1 | F >.X & O                 @ O X 4 r y.K a b . > BX",
"BXBX- r.$ 6 ` x r 4 X % O @ @       @ O & X 9 ;.! 5 d $ 6.- BXBX",
"BXBX; . +.l %.5 I h y X % % O O O O & % X 4 ;.sXe.i < @.. ; BXBX",
"BXBXBX= f o.,.7.C -.<.S 4 X X X X X X 9 2 r ! e.).a E A = BXBXBX",
"BXBXBX# o 8 * < 2.3 Q w.H a.u 2 2 u 0 0.i.y.5 i a $ _ o # BXBXBX",
"BXBXBXBX: o 8 B 7 [ T 5 ) / Z 9.*.~ 3.' 4.K d < E _ o : BXBXBXBX",
"BXBXBXBXBX: o f M $ 1. .i k 3 q q =.j 1 d a $ @.A o : BXBXBXBXBX",
"BXBXBXBXBXBX# = . R m $ c u.v 6 6 { p 7 $ b 6.. = # BXBXBXBXBXBX",
"BXBXBXBXBXBXBXBX; - . 8 n q.( * * * ^ G L . - ; BXBXBXBXBXBXBXBX",
"BXBXBXBXBXBXBXBXBXBX> , o . . . . . . o , > BXBXBXBXBXBXBXBXBXBX",
"BXBXBXBXBXBXBXBXBXBXBXBXBX# + + + + # BXBXBXBXBXBXBXBXBXBXBXBXBX"
};
